<mxfile host="app.diagrams.net" agent="Mozilla/5.0 (Windows NT 10.0; Win64; x64; rv:140.0) Gecko/20100101 Firefox/140.0" version="28.0.3">
  <diagram name="Page-1" id="muR0ZfRnhBTuAhWXwq9r">
    <mxGraphModel dx="3483" dy="2028" grid="1" gridSize="10" guides="1" tooltips="1" connect="1" arrows="1" fold="1" page="1" pageScale="1" pageWidth="850" pageHeight="1100" math="0" shadow="0">
      <root>
        <mxCell id="0" />
        <mxCell id="1" parent="0" />
        <mxCell id="j3V-Zg47lHWonzq48pgY-1" value="" style="strokeWidth=1;shadow=0;dashed=0;align=center;html=1;shape=mxgraph.mockup.forms.rrect;rSize=0;strokeColor=#999999;fillColor=#ffffff;" parent="1" vertex="1">
          <mxGeometry x="310" y="120" width="200" height="320" as="geometry" />
        </mxCell>
        <mxCell id="j3V-Zg47lHWonzq48pgY-2" value="Sign In" style="strokeWidth=1;shadow=0;dashed=0;align=center;html=1;shape=mxgraph.mockup.forms.anchor;fontSize=12;fontColor=#666666;align=left;resizeWidth=1;spacingLeft=0;" parent="j3V-Zg47lHWonzq48pgY-1" vertex="1">
          <mxGeometry width="100" height="20" relative="1" as="geometry">
            <mxPoint x="10" y="10" as="offset" />
          </mxGeometry>
        </mxCell>
        <mxCell id="j3V-Zg47lHWonzq48pgY-3" value="" style="shape=line;strokeColor=#ddeeff;strokeWidth=2;html=1;resizeWidth=1;" parent="j3V-Zg47lHWonzq48pgY-1" vertex="1">
          <mxGeometry width="180" height="10" relative="1" as="geometry">
            <mxPoint x="10" y="30" as="offset" />
          </mxGeometry>
        </mxCell>
        <mxCell id="j3V-Zg47lHWonzq48pgY-4" value="Student ID" style="strokeWidth=1;shadow=0;dashed=0;align=center;html=1;shape=mxgraph.mockup.forms.anchor;fontSize=12;fontColor=#666666;align=left;resizeWidth=1;spacingLeft=0;" parent="j3V-Zg47lHWonzq48pgY-1" vertex="1">
          <mxGeometry width="100" height="20" relative="1" as="geometry">
            <mxPoint x="10" y="40" as="offset" />
          </mxGeometry>
        </mxCell>
        <mxCell id="j3V-Zg47lHWonzq48pgY-5" value="" style="strokeWidth=1;shadow=0;dashed=0;align=center;html=1;shape=mxgraph.mockup.forms.rrect;rSize=0;strokeColor=#999999;fontColor=#666666;align=left;spacingLeft=5;resizeWidth=1;" parent="j3V-Zg47lHWonzq48pgY-1" vertex="1">
          <mxGeometry width="150" height="25" relative="1" as="geometry">
            <mxPoint x="10" y="60" as="offset" />
          </mxGeometry>
        </mxCell>
        <mxCell id="j3V-Zg47lHWonzq48pgY-6" value="Password:" style="strokeWidth=1;shadow=0;dashed=0;align=center;html=1;shape=mxgraph.mockup.forms.anchor;fontSize=12;fontColor=#666666;align=left;resizeWidth=1;spacingLeft=0;" parent="j3V-Zg47lHWonzq48pgY-1" vertex="1">
          <mxGeometry width="100" height="20" relative="1" as="geometry">
            <mxPoint x="10" y="95" as="offset" />
          </mxGeometry>
        </mxCell>
        <mxCell id="j3V-Zg47lHWonzq48pgY-7" value="" style="strokeWidth=1;shadow=0;dashed=0;align=center;html=1;shape=mxgraph.mockup.forms.rrect;rSize=0;strokeColor=#999999;fontColor=#666666;align=left;spacingLeft=5;resizeWidth=1;" parent="j3V-Zg47lHWonzq48pgY-1" vertex="1">
          <mxGeometry width="150" height="25" relative="1" as="geometry">
            <mxPoint x="10" y="115" as="offset" />
          </mxGeometry>
        </mxCell>
        <mxCell id="j3V-Zg47lHWonzq48pgY-8" value="Login" style="strokeWidth=1;shadow=0;dashed=0;align=center;html=1;shape=mxgraph.mockup.forms.rrect;rSize=5;strokeColor=none;fontColor=#ffffff;fillColor=#66bbff;fontSize=16;fontStyle=1;" parent="j3V-Zg47lHWonzq48pgY-1" vertex="1">
          <mxGeometry y="1" width="80" height="30" relative="1" as="geometry">
            <mxPoint x="60" y="-130" as="offset" />
          </mxGeometry>
        </mxCell>
        <mxCell id="j3V-Zg47lHWonzq48pgY-10" value="" style="shape=line;strokeColor=#ddeeff;strokeWidth=2;html=1;resizeWidth=1;" parent="j3V-Zg47lHWonzq48pgY-1" vertex="1">
          <mxGeometry y="1" width="180" height="10" relative="1" as="geometry">
            <mxPoint x="10" y="-90" as="offset" />
          </mxGeometry>
        </mxCell>
        <mxCell id="j3V-Zg47lHWonzq48pgY-22" value="" style="edgeStyle=orthogonalEdgeStyle;rounded=0;orthogonalLoop=1;jettySize=auto;html=1;entryX=0.004;entryY=0.524;entryDx=0;entryDy=0;entryPerimeter=0;" parent="1" target="j3V-Zg47lHWonzq48pgY-30" edge="1">
          <mxGeometry relative="1" as="geometry">
            <mxPoint x="450" y="325" as="sourcePoint" />
            <mxPoint x="610" y="290" as="targetPoint" />
          </mxGeometry>
        </mxCell>
        <mxCell id="j3V-Zg47lHWonzq48pgY-23" value="" style="image;html=1;image=img/lib/clip_art/computers/Database_128x128.png" parent="1" vertex="1">
          <mxGeometry x="60" y="60" width="80" height="80" as="geometry" />
        </mxCell>
        <mxCell id="j3V-Zg47lHWonzq48pgY-25" value="" style="aspect=fixed;sketch=0;html=1;dashed=0;whitespace=wrap;verticalLabelPosition=bottom;verticalAlign=top;fillColor=#2875E2;strokeColor=#ffffff;points=[[0.005,0.63,0],[0.1,0.2,0],[0.9,0.2,0],[0.5,0,0],[0.995,0.63,0],[0.72,0.99,0],[0.5,1,0],[0.28,0.99,0]];shape=mxgraph.kubernetes.icon2;prIcon=api" parent="1" vertex="1">
          <mxGeometry x="140" y="230" width="50" height="48" as="geometry" />
        </mxCell>
        <mxCell id="j3V-Zg47lHWonzq48pgY-27" value="هى نفس البيانات المطلوبة للدخول على نظام&lt;br&gt;SIS&amp;nbsp;" style="whiteSpace=wrap;html=1;fontSize=17;fillColor=#ffffcc;strokeColor=#F62E00;fontColor=#666666;strokeWidth=1;shadow=0;dashed=0;" parent="1" vertex="1">
          <mxGeometry x="280" y="520" width="220" height="80" as="geometry" />
        </mxCell>
        <mxCell id="j3V-Zg47lHWonzq48pgY-32" value="" style="group" parent="1" vertex="1" connectable="0">
          <mxGeometry x="555" y="120" width="720" height="410" as="geometry" />
        </mxCell>
        <mxCell id="j3V-Zg47lHWonzq48pgY-30" value="Scholarship&amp;nbsp;" style="strokeWidth=1;shadow=0;dashed=0;align=center;html=1;shape=mxgraph.mockup.containers.window;align=left;verticalAlign=top;spacingLeft=8;strokeColor2=#008cff;strokeColor3=#c4c4c4;fontColor=#666666;mainText=;fontSize=17;labelBackgroundColor=none;whiteSpace=wrap;" parent="j3V-Zg47lHWonzq48pgY-32" vertex="1">
          <mxGeometry width="720" height="410" as="geometry" />
        </mxCell>
        <mxCell id="j3V-Zg47lHWonzq48pgY-31" value="Container" style="swimlane;movable=1;resizable=1;rotatable=1;deletable=1;editable=1;locked=0;connectable=1;" parent="j3V-Zg47lHWonzq48pgY-32" vertex="1">
          <mxGeometry x="20" y="70" width="200" height="200" as="geometry" />
        </mxCell>
        <UserObject label="" plantUmlData="{&#xa;  &quot;data&quot;: &quot;&lt;mxfile host=\&quot;app.diagrams.net\&quot;&gt;\n  &lt;diagram name=\&quot;Scholarship System Architecture\&quot; id=\&quot;dN8gPYQ5RkqjppSZgZgf\&quot;&gt;\n    &lt;mxGraphModel dx=\&quot;1096\&quot; dy=\&quot;630\&quot; grid=\&quot;1\&quot; gridSize=\&quot;10\&quot; guides=\&quot;1\&quot; tooltips=\&quot;1\&quot; connect=\&quot;1\&quot; arrows=\&quot;1\&quot; fold=\&quot;1\&quot; page=\&quot;1\&quot; pageScale=\&quot;1\&quot; pageWidth=\&quot;827\&quot; pageHeight=\&quot;1169\&quot; math=\&quot;0\&quot; shadow=\&quot;0\&quot;&gt;\n      &lt;root&gt;\n        &lt;mxCell id=\&quot;0\&quot;/&gt;\n        &lt;mxCell id=\&quot;1\&quot; parent=\&quot;0\&quot;/&gt;\n        \n        &lt;!-- Layers --&gt;\n        &lt;mxCell id=\&quot;2\&quot; value=\&quot;Presentation Layer\&quot; style=\&quot;swimlane;fillColor=#dae8fc;\&quot; vertex=\&quot;1\&quot; parent=\&quot;1\&quot;&gt;\n          &lt;mxGeometry x=\&quot;20\&quot; y=\&quot;20\&quot; width=\&quot;240\&quot; height=\&quot;240\&quot; as=\&quot;geometry\&quot;/&gt;\n        &lt;/mxCell&gt;\n        &lt;mxCell id=\&quot;3\&quot; value=\&quot;Student Portal&amp;#xa;Admin Dashboard&amp;#xa;Finance View\&quot; style=\&quot;text;html=1;strokeColor=none;fillColor=none;\&quot; vertex=\&quot;1\&quot; parent=\&quot;2\&quot;&gt;\n          &lt;mxGeometry x=\&quot;10\&quot; y=\&quot;30\&quot; width=\&quot;220\&quot; height=\&quot;200\&quot; as=\&quot;geometry\&quot;/&gt;\n        &lt;/mxCell&gt;\n\n        &lt;mxCell id=\&quot;4\&quot; value=\&quot;Application Layer\&quot; style=\&quot;swimlane;fillColor=#e1d5e7;\&quot; vertex=\&quot;1\&quot; parent=\&quot;1\&quot;&gt;\n          &lt;mxGeometry x=\&quot;280\&quot; y=\&quot;20\&quot; width=\&quot;240\&quot; height=\&quot;300\&quot; as=\&quot;geometry\&quot;/&gt;\n        &lt;/mxCell&gt;\n        &lt;mxCell id=\&quot;5\&quot; value=\&quot;Workflow Engine&amp;#xa;Notification Manager&amp;#xa;Authentication Service&amp;#xa;Role-Based Access\&quot; style=\&quot;text;html=1;strokeColor=none;fillColor=none;\&quot; vertex=\&quot;1\&quot; parent=\&quot;4\&quot;&gt;\n          &lt;mxGeometry x=\&quot;10\&quot; y=\&quot;30\&quot; width=\&quot;220\&quot; height=\&quot;260\&quot; as=\&quot;geometry\&quot;/&gt;\n        &lt;/mxCell&gt;\n\n        &lt;mxCell id=\&quot;6\&quot; value=\&quot;Business Logic Layer\&quot; style=\&quot;swimlane;fillColor=#f8cecc;\&quot; vertex=\&quot;1\&quot; parent=\&quot;1\&quot;&gt;\n          &lt;mxGeometry x=\&quot;540\&quot; y=\&quot;20\&quot; width=\&quot;260\&quot; height=\&quot;360\&quot; as=\&quot;geometry\&quot;/&gt;\n        &lt;/mxCell&gt;\n        &lt;mxCell id=\&quot;7\&quot; value=\&quot;Scholarship Manager&amp;#xa;Discount Manager&amp;#xa;GPA Monitor&amp;#xa;Quota Tracker&amp;#xa;Document Validator&amp;#xa;Rules Engine\&quot; style=\&quot;text;html=1;strokeColor=none;fillColor=none;\&quot; vertex=\&quot;1\&quot; parent=\&quot;6\&quot;&gt;\n          &lt;mxGeometry x=\&quot;10\&quot; y=\&quot;30\&quot; width=\&quot;240\&quot; height=\&quot;320\&quot; as=\&quot;geometry\&quot;/&gt;\n        &lt;/mxCell&gt;\n\n        &lt;mxCell id=\&quot;8\&quot; value=\&quot;Data Layer\&quot; style=\&quot;swimlane;fillColor=#d5e8d4;\&quot; vertex=\&quot;1\&quot; parent=\&quot;1\&quot;&gt;\n          &lt;mxGeometry x=\&quot;820\&quot; y=\&quot;20\&quot; width=\&quot;220\&quot; height=\&quot;260\&quot; as=\&quot;geometry\&quot;/&gt;\n        &lt;/mxCell&gt;\n        &lt;mxCell id=\&quot;9\&quot; value=\&quot;Student DB&amp;#xa;Scholarship Config DB&amp;#xa;Document Storage&amp;#xa;GPA Logs&amp;#xa;Audit Trails\&quot; style=\&quot;text;html=1;strokeColor=none;fillColor=none;\&quot; vertex=\&quot;1\&quot; parent=\&quot;8\&quot;&gt;\n          &lt;mxGeometry x=\&quot;10\&quot; y=\&quot;30\&quot; width=\&quot;200\&quot; height=\&quot;220\&quot; as=\&quot;geometry\&quot;/&gt;\n        &lt;/mxCell&gt;\n\n        &lt;!-- Arrows between layers --&gt;\n        &lt;mxCell id=\&quot;10\&quot; style=\&quot;endArrow=block;\&quot; edge=\&quot;1\&quot; parent=\&quot;1\&quot; source=\&quot;2\&quot; target=\&quot;4\&quot;&gt;\n          &lt;mxGeometry relative=\&quot;1\&quot; as=\&quot;geometry\&quot;/&gt;\n        &lt;/mxCell&gt;\n        &lt;mxCell id=\&quot;11\&quot; style=\&quot;endArrow=block;\&quot; edge=\&quot;1\&quot; parent=\&quot;1\&quot; source=\&quot;4\&quot; target=\&quot;6\&quot;&gt;\n          &lt;mxGeometry relative=\&quot;1\&quot; as=\&quot;geometry\&quot;/&gt;\n        &lt;/mxCell&gt;\n        &lt;mxCell id=\&quot;12\&quot; style=\&quot;endArrow=block;\&quot; edge=\&quot;1\&quot; parent=\&quot;1\&quot; source=\&quot;6\&quot; target=\&quot;8\&quot;&gt;\n          &lt;mxGeometry relative=\&quot;1\&quot; as=\&quot;geometry\&quot;/&gt;\n        &lt;/mxCell&gt;\n\n      &lt;/root&gt;\n    &lt;/mxGraphModel&gt;\n  &lt;/diagram&gt;\n&lt;/mxfile&gt;\n&quot;,&#xa;  &quot;format&quot;: &quot;svg&quot;&#xa;}" id="8OKA-rKJ8xgby_Ax9gFC-47">
          <mxCell style="shape=image;noLabel=1;verticalAlign=top;aspect=fixed;imageAspect=0;image=data:image/svg+xml,PHN2ZyB4bWxucz0iaHR0cDovL3d3dy53My5vcmcvMjAwMC9zdmciIHhtbG5zOnhsaW5rPSJodHRwOi8vd3d3LnczLm9yZy8xOTk5L3hsaW5rIiBjb250ZW50U3R5bGVUeXBlPSJ0ZXh0L2NzcyIgaGVpZ2h0PSIxNTFweCIgcHJlc2VydmVBc3BlY3RSYXRpbz0ibm9uZSIgc3R5bGU9IndpZHRoOjM2MnB4O2hlaWdodDoxNTFweDtiYWNrZ3JvdW5kOiMwMDAwMDA7IiB2ZXJzaW9uPSIxLjEiIHZpZXdCb3g9IjAgMCAzNjIgMTUxIiB3aWR0aD0iMzYycHgiIHpvb21BbmRQYW49Im1hZ25pZnkiPjxkZWZzLz48Zz48cmVjdCBmaWxsPSIjMjYwODFEIiBoZWlnaHQ9IjEiIHN0eWxlPSJzdHJva2U6IzI2MDgxRDtzdHJva2Utd2lkdGg6MTsiIHdpZHRoPSIxIiB4PSIwIiB5PSIwIi8+PHRleHQgZmlsbD0iIzMzRkYwMiIgZm9udC1mYW1pbHk9InNhbnMtc2VyaWYiIGZvbnQtc2l6ZT0iMTIiIGZvbnQtc3R5bGU9Iml0YWxpYyIgZm9udC13ZWlnaHQ9ImJvbGQiIGxlbmd0aEFkanVzdD0ic3BhY2luZyIgdGV4dExlbmd0aD0iMTAyIiB4PSI1IiB5PSIxNyI+UGxhbnRVTUwgMS4yMDI1LjI8L3RleHQ+PHRleHQgZmlsbD0iIzMzRkYwMiIgZm9udC1mYW1pbHk9InNhbnMtc2VyaWYiIGZvbnQtc2l6ZT0iMTIiIGZvbnQtc3R5bGU9Iml0YWxpYyIgZm9udC13ZWlnaHQ9ImJvbGQiIGxlbmd0aEFkanVzdD0ic3BhY2luZyIgdGV4dExlbmd0aD0iNiIgeD0iNSIgeT0iMjkuODQzOCI+JiMxNjA7PC90ZXh0Pjx0ZXh0IGZpbGw9IiMzM0ZGMDIiIGZvbnQtZmFtaWx5PSJzYW5zLXNlcmlmIiBmb250LXNpemU9IjEyIiBmb250LXN0eWxlPSJpdGFsaWMiIGZvbnQtd2VpZ2h0PSJib2xkIiBsZW5ndGhBZGp1c3Q9InNwYWNpbmciIHRleHRMZW5ndGg9IjM0OCIgeD0iNSIgeT0iNDIuNjg3NSI+Jmx0O2ImZ3Q7VGhpcyB2ZXJzaW9uIG9mIFBsYW50VU1MIGlzIDE4NCBkYXlzIG9sZCwgc28geW91IHNob3VsZDwvdGV4dD48dGV4dCBmaWxsPSIjMzNGRjAyIiBmb250LWZhbWlseT0ic2Fucy1zZXJpZiIgZm9udC1zaXplPSIxMiIgZm9udC1zdHlsZT0iaXRhbGljIiBmb250LXdlaWdodD0iYm9sZCIgbGVuZ3RoQWRqdXN0PSJzcGFjaW5nIiB0ZXh0TGVuZ3RoPSIzMzYiIHg9IjUiIHk9IjU1LjUzMTMiPiZsdDtiJmd0O2NvbnNpZGVyIHVwZ3JhZGluZyBmcm9tIGh0dHBzOi8vcGxhbnR1bWwuY29tL2Rvd25sb2FkPC90ZXh0PjxyZWN0IGZpbGw9IiMzM0ZGMDIiIGhlaWdodD0iMTkuOTg0NCIgc3R5bGU9InN0cm9rZTojMzNGRjAyO3N0cm9rZS13aWR0aDoxOyIgd2lkdGg9IjE2MyIgeD0iNSIgeT0iNjQuMzc1Ii8+PHRleHQgZmlsbD0iIzAwMDAwMCIgZm9udC1mYW1pbHk9InNhbnMtc2VyaWYiIGZvbnQtc2l6ZT0iMTQiIGZvbnQtd2VpZ2h0PSJib2xkIiBsZW5ndGhBZGp1c3Q9InNwYWNpbmciIHRleHRMZW5ndGg9IjE2MSIgeD0iNiIgeT0iNzkuMzc1Ij5bRnJvbSBzdHJpbmcgKGxpbmUgMikgXTwvdGV4dD48dGV4dCBmaWxsPSIjMzNGRjAyIiBmb250LWZhbWlseT0ic2Fucy1zZXJpZiIgZm9udC1zaXplPSIxNCIgZm9udC13ZWlnaHQ9ImJvbGQiIGxlbmd0aEFkanVzdD0ic3BhY2luZyIgdGV4dExlbmd0aD0iNyIgeD0iNSIgeT0iOTguMzU5NCI+JiMxNjA7PC90ZXh0Pjx0ZXh0IGZpbGw9IiMzM0ZGMDIiIGZvbnQtZmFtaWx5PSJzYW5zLXNlcmlmIiBmb250LXNpemU9IjE0IiBmb250LXdlaWdodD0iYm9sZCIgbGVuZ3RoQWRqdXN0PSJzcGFjaW5nIiB0ZXh0TGVuZ3RoPSI2MyIgeD0iNSIgeT0iMTEzLjM0MzgiPkBzdGFydHVtbDwvdGV4dD48dGV4dCBmaWxsPSIjMzNGRjAyIiBmb250LWZhbWlseT0ic2Fucy1zZXJpZiIgZm9udC1zaXplPSIxNCIgZm9udC13ZWlnaHQ9ImJvbGQiIGxlbmd0aEFkanVzdD0ic3BhY2luZyIgdGV4dC1kZWNvcmF0aW9uPSJ3YXZ5IHVuZGVybGluZSIgdGV4dExlbmd0aD0iMjI0IiB4PSI1IiB5PSIxMjguMzI4MSI+Jmx0O214ZmlsZSBob3N0PSJhcHAuZGlhZ3JhbXMubmV0IiZndDs8L3RleHQ+PHRleHQgZmlsbD0iI0ZGMDAwMCIgZm9udC1mYW1pbHk9InNhbnMtc2VyaWYiIGZvbnQtc2l6ZT0iMTQiIGZvbnQtd2VpZ2h0PSJib2xkIiBsZW5ndGhBZGp1c3Q9InNwYWNpbmciIHRleHRMZW5ndGg9IjMyMiIgeD0iMTIiIHk9IjE0My4zMTI1Ij5TeW50YXggRXJyb3I/IChBc3N1bWVkIGRpYWdyYW0gdHlwZTogc2VxdWVuY2UpPC90ZXh0PjwhLS1TUkM9W2pMUERLemltNEJ0cEFyR3Bxcmo4ZDB6WjlmWVAwMnF6MDFEODF3UlNYQkluclNZSUF5YWF3US1sUjJMRUtaQVB1QU9kUXhOSVFqLSAtdFZNVWZ4Q251dTBJZ0t0YXVJbXhlR3A3MmdWd0g4M25CZXVHRWJfaTg4NUpZQm1ISUlKN0lZU2lHd0V2RGYyWVdJODlDcTFDaGkxM1o0T1VsR19adU8tN3RrRmFyeXlpNnh0NEJfNnVENlJEZlJDUlhSRmFKYkJXWUN1WXBzLVQxSHdZeXlXQkVZcUZuUWdtdUJsNVlGczZ1ZUlMU2FQMWJtZVo5SlNpU21BSEdqWWRvcExNSWF4VHpiWG9Qb04zQ0xJQjRTNXk5SnFwUWZCODJ6a2RKbHU2QjR1QUl0dm12ZzRLNXFoeGlhdW1iVERZd0gxTzM0ZkFpbkhBSTVWMFVPY3l2Sk10QXlldDVHWnBydmRMdUstRDFoaDVTcjBRREhoUlpSR3p6OFB2Ulk0QzVNWGgzMWljWFJqYjdKTnAwZnNVaWZIWjBOdEJCQi1JTkFoZWM2ODhud0hsaHVDb0NEam1uX1RNWnBiLUdBUFdyMXBQU3NxUldCZHhKNXN1c2JzeEpYUVhBV0xpR251bHhjcDBScGhOanNGZkw1WDY5Z1ZNNHBJS29jMy0gLU5ZNi1tRVFDZTZraUt2VTlMUXF0RmxBMTFPNHExRTNRR05NV1o3em5BR3l5bGxRQTNhMVhyWjhaRzJLdWJScXhMdGVWT1UtaXVRLWxPdy1qSFZ3aFYyeDVWbjFiZDU2emNLSVZEZzNxcGZDWGhrZnhCSGdLemNoaTNuQkRIYnBFS0xWSENtNGJCcFRJeUY2SXUxdE1EWEFLdXhhdDJKTXh3TGcxRWdENE5WZEtOOWVONjhENTBxODBRcUZIdFp0Tm1XRndYQ1VMNDZ3cEJNRFpUUmVMaVFDeEM3dkUySDB3YkhsaF9rVXlzMlR5dzBzdndVaHlidHg4d3BKVXlxcWFSY2p3X05EYy00MHRLZDFaN0pvR291REhqeUw5ZkZiREtkb2o2VzdKdldwWWZTNzd0Q0VVZjVNWHFrNnU4RjlpNTRteFZoOTQ1UkhreU9NX251RGwwU1h4VFA4V04xQjF3LUhxamowZEJ0aHVEVU45TFZoNk40Ym5QWjVJcXI1eGlab1FmRVlvV2JSMmRoSDUyV3BISzhtVmkyWTNwXzhTc2l6R1hfYmtWWUgzeWZIMUJzMmNHODhuN1Zfcm1pRjViMTFxRjlrekNlYmNMV3FHQWkxUGFhdHFaOU4xQ2Z2bTYwTG15d3NmZTNSMWxsY1pESFpzbFZoLVRUVC1IVnlMX19RelZtQkxsdzVYXzlsRUlDc0xxRFllTG1EbFVMR3RMbkNySFQ3WFJBT21JXy0wMDAwXS0tPjwvZz48L3N2Zz4=;" parent="1" vertex="1">
            <mxGeometry x="-580" y="210" width="362" height="151" as="geometry" />
          </mxCell>
        </UserObject>
        <UserObject label="" plantUmlData="{&#xa;  &quot;data&quot;: &quot;@startuml\nskinparam componentStyle rectangle\nskinparam backgroundColor #FFFFFF\nskinparam component {\n  BorderColor Black\n  BackgroundColor&lt;&lt;Database&gt;&gt; #D5E8D4\n  BackgroundColor&lt;&lt;Service&gt;&gt; #F8CECC\n  BackgroundColor&lt;&lt;Frontend&gt;&gt; #DAE8FC\n}\n\npackage \&quot;Presentation Layer\&quot; {\n  [Student Portal] &lt;&lt;Frontend&gt;&gt;\n  [Admin Dashboard] &lt;&lt;Frontend&gt;&gt;\n  [Finance View] &lt;&lt;Frontend&gt;&gt;\n}\n\npackage \&quot;Application Layer\&quot; {\n  [Workflow Engine] &lt;&lt;Service&gt;&gt;\n  [Notification Service] &lt;&lt;Service&gt;&gt;\n  [Auth Service] &lt;&lt;Service&gt;&gt;\n  [Access Control] &lt;&lt;Service&gt;&gt;\n}\n\npackage \&quot;Business Logic Layer\&quot; {\n  [Scholarship Manager] &lt;&lt;Service&gt;&gt;\n  [Discount Manager] &lt;&lt;Service&gt;&gt;\n  [GPA Monitor] &lt;&lt;Service&gt;&gt;\n  [Quota Tracker] &lt;&lt;Service&gt;&gt;\n  [Rules Engine] &lt;&lt;Service&gt;&gt;\n  [Document Validator] &lt;&lt;Service&gt;&gt;\n}\n\npackage \&quot;Data Layer\&quot; {\n  [Student Database] &lt;&lt;Database&gt;&gt;\n  [Scholarship Config DB] &lt;&lt;Database&gt;&gt;\n  [Document Storage] &lt;&lt;Database&gt;&gt;\n  [GPA Logs DB] &lt;&lt;Database&gt;&gt;\n  [Audit Logs] &lt;&lt;Database&gt;&gt;\n}\n\n&#39; Connections: Presentation -&gt; Application\n[Student Portal] --&gt; [Workflow Engine]\n[Admin Dashboard] --&gt; [Workflow Engine]\n[Finance View] --&gt; [Workflow Engine]\n\n&#39; Connections: Application -&gt; Business Logic\n[Workflow Engine] --&gt; [Scholarship Manager]\n[Workflow Engine] --&gt; [Discount Manager]\n[Notification Service] --&gt; [GPA Monitor]\n[Access Control] --&gt; [Rules Engine]\n[Auth Service] --&gt; [Access Control]\n\n&#39; Connections: Business Logic -&gt; Data Layer\n[Scholarship Manager] --&gt; [Scholarship Config DB]\n[Discount Manager] --&gt; [Scholarship Config DB]\n[GPA Monitor] --&gt; [GPA Logs DB]\n[Document Validator] --&gt; [Document Storage]\n[Rules Engine] --&gt; [Student Database]\n[Quota Tracker] --&gt; [Student Database]\n[Scholarship Manager] --&gt; [Audit Logs]\n\n@enduml\n&quot;,&#xa;  &quot;format&quot;: &quot;svg&quot;&#xa;}" id="8OKA-rKJ8xgby_Ax9gFC-48">
          <mxCell style="shape=image;noLabel=1;verticalAlign=top;aspect=fixed;imageAspect=0;image=data:image/svg+xml,PHN2ZyB4bWxucz0iaHR0cDovL3d3dy53My5vcmcvMjAwMC9zdmciIHhtbG5zOnhsaW5rPSJodHRwOi8vd3d3LnczLm9yZy8xOTk5L3hsaW5rIiBjb250ZW50U3R5bGVUeXBlPSJ0ZXh0L2NzcyIgZGF0YS1kaWFncmFtLXR5cGU9IkRFU0NSSVBUSU9OIiBoZWlnaHQ9IjU5MXB4IiBwcmVzZXJ2ZUFzcGVjdFJhdGlvPSJub25lIiBzdHlsZT0id2lkdGg6OTY0cHg7aGVpZ2h0OjU5MXB4O2JhY2tncm91bmQ6I0ZGRkZGRjsiIHZlcnNpb249IjEuMSIgdmlld0JveD0iMCAwIDk2NCA1OTEiIHdpZHRoPSI5NjRweCIgem9vbUFuZFBhbj0ibWFnbmlmeSI+PGRlZnMvPjxnPjwhLS1jbHVzdGVyIFByZXNlbnRhdGlvbiBMYXllci0tPjxnIGNsYXNzPSJjbHVzdGVyIiBkYXRhLWVudGl0eT0iUHJlc2VudGF0aW9uIExheWVyIiBkYXRhLXNvdXJjZS1saW5lPSIxMCIgZGF0YS11aWQ9ImVudDAwMDIiIGlkPSJjbHVzdGVyX1ByZXNlbnRhdGlvbiBMYXllciI+PHBhdGggZD0iTTM4NC41LDYgTDUxMS41LDYgQTMuNzUsMy43NSAwIDAgMSA1MTQsOC41IEw1MjEsMjYuOTg0NCBMODI5LjUsMjYuOTg0NCBBMi41LDIuNSAwIDAgMSA4MzIsMjkuNDg0NCBMODMyLDEwMi41IEEyLjUsMi41IDAgMCAxIDgyOS41LDEwNSBMMzg0LjUsMTA1IEEyLjUsMi41IDAgMCAxIDM4MiwxMDIuNSBMMzgyLDguNSBBMi41LDIuNSAwIDAgMSAzODQuNSw2IiBmaWxsPSJub25lIiBzdHlsZT0ic3Ryb2tlOiMwMDAwMDA7c3Ryb2tlLXdpZHRoOjEuNTsiLz48bGluZSBzdHlsZT0ic3Ryb2tlOiMwMDAwMDA7c3Ryb2tlLXdpZHRoOjEuNTsiIHgxPSIzODIiIHgyPSI1MjEiIHkxPSIyNi45ODQ0IiB5Mj0iMjYuOTg0NCIvPjx0ZXh0IGZpbGw9IiMwMDAwMDAiIGZvbnQtZmFtaWx5PSJzYW5zLXNlcmlmIiBmb250LXNpemU9IjE0IiBmb250LXdlaWdodD0iYm9sZCIgbGVuZ3RoQWRqdXN0PSJzcGFjaW5nIiB0ZXh0TGVuZ3RoPSIxMjYiIHg9IjM4NiIgeT0iMjEuMjM0NCI+UHJlc2VudGF0aW9uIExheWVyPC90ZXh0PjwvZz48IS0tY2x1c3RlciBBcHBsaWNhdGlvbiBMYXllci0tPjxnIGNsYXNzPSJjbHVzdGVyIiBkYXRhLWVudGl0eT0iQXBwbGljYXRpb24gTGF5ZXIiIGRhdGEtc291cmNlLWxpbmU9IjE2IiBkYXRhLXVpZD0iZW50MDAwNiIgaWQ9ImNsdXN0ZXJfQXBwbGljYXRpb24gTGF5ZXIiPjxwYXRoIGQ9Ik0zODQuNSwxMjkgTDUwNC41LDEyOSBBMy43NSwzLjc1IDAgMCAxIDUwNywxMzEuNSBMNTE0LDE0OS45ODQ0IEw4NzEuNSwxNDkuOTg0NCBBMi41LDIuNSAwIDAgMSA4NzQsMTUyLjQ4NDQgTDg3NCwzMzUuNSBBMi41LDIuNSAwIDAgMSA4NzEuNSwzMzggTDM4NC41LDMzOCBBMi41LDIuNSAwIDAgMSAzODIsMzM1LjUgTDM4MiwxMzEuNSBBMi41LDIuNSAwIDAgMSAzODQuNSwxMjkiIGZpbGw9Im5vbmUiIHN0eWxlPSJzdHJva2U6IzAwMDAwMDtzdHJva2Utd2lkdGg6MS41OyIvPjxsaW5lIHN0eWxlPSJzdHJva2U6IzAwMDAwMDtzdHJva2Utd2lkdGg6MS41OyIgeDE9IjM4MiIgeDI9IjUxNCIgeTE9IjE0OS45ODQ0IiB5Mj0iMTQ5Ljk4NDQiLz48dGV4dCBmaWxsPSIjMDAwMDAwIiBmb250LWZhbWlseT0ic2Fucy1zZXJpZiIgZm9udC1zaXplPSIxNCIgZm9udC13ZWlnaHQ9ImJvbGQiIGxlbmd0aEFkanVzdD0ic3BhY2luZyIgdGV4dExlbmd0aD0iMTE5IiB4PSIzODYiIHk9IjE0NC4yMzQ0Ij5BcHBsaWNhdGlvbiBMYXllcjwvdGV4dD48L2c+PCEtLWNsdXN0ZXIgQnVzaW5lc3MgTG9naWMgTGF5ZXItLT48ZyBjbGFzcz0iY2x1c3RlciIgZGF0YS1lbnRpdHk9IkJ1c2luZXNzIExvZ2ljIExheWVyIiBkYXRhLXNvdXJjZS1saW5lPSIyMyIgZGF0YS11aWQ9ImVudDAwMTEiIGlkPSJjbHVzdGVyX0J1c2luZXNzIExvZ2ljIExheWVyIj48cGF0aCBkPSJNOC41LDM2MiBMMTQ5LjUsMzYyIEEzLjc1LDMuNzUgMCAwIDEgMTUyLDM2NC41IEwxNTksMzgyLjk4NDQgTDk1NC41LDM4Mi45ODQ0IEEyLjUsMi41IDAgMCAxIDk1NywzODUuNDg0NCBMOTU3LDQ1OC41IEEyLjUsMi41IDAgMCAxIDk1NC41LDQ2MSBMOC41LDQ2MSBBMi41LDIuNSAwIDAgMSA2LDQ1OC41IEw2LDM2NC41IEEyLjUsMi41IDAgMCAxIDguNSwzNjIiIGZpbGw9Im5vbmUiIHN0eWxlPSJzdHJva2U6IzAwMDAwMDtzdHJva2Utd2lkdGg6MS41OyIvPjxsaW5lIHN0eWxlPSJzdHJva2U6IzAwMDAwMDtzdHJva2Utd2lkdGg6MS41OyIgeDE9IjYiIHgyPSIxNTkiIHkxPSIzODIuOTg0NCIgeTI9IjM4Mi45ODQ0Ii8+PHRleHQgZmlsbD0iIzAwMDAwMCIgZm9udC1mYW1pbHk9InNhbnMtc2VyaWYiIGZvbnQtc2l6ZT0iMTQiIGZvbnQtd2VpZ2h0PSJib2xkIiBsZW5ndGhBZGp1c3Q9InNwYWNpbmciIHRleHRMZW5ndGg9IjE0MCIgeD0iMTAiIHk9IjM3Ny4yMzQ0Ij5CdXNpbmVzcyBMb2dpYyBMYXllcjwvdGV4dD48L2c+PCEtLWNsdXN0ZXIgRGF0YSBMYXllci0tPjxnIGNsYXNzPSJjbHVzdGVyIiBkYXRhLWVudGl0eT0iRGF0YSBMYXllciIgZGF0YS1zb3VyY2UtbGluZT0iMzIiIGRhdGEtdWlkPSJlbnQwMDE4IiBpZD0iY2x1c3Rlcl9EYXRhIExheWVyIj48cGF0aCBkPSJNMTUxLjUsNDg1IEwyMjIuNSw0ODUgQTMuNzUsMy43NSAwIDAgMSAyMjUsNDg3LjUgTDIzMiw1MDUuOTg0NCBMOTM4LjUsNTA1Ljk4NDQgQTIuNSwyLjUgMCAwIDEgOTQxLDUwOC40ODQ0IEw5NDEsNTgxLjUgQTIuNSwyLjUgMCAwIDEgOTM4LjUsNTg0IEwxNTEuNSw1ODQgQTIuNSwyLjUgMCAwIDEgMTQ5LDU4MS41IEwxNDksNDg3LjUgQTIuNSwyLjUgMCAwIDEgMTUxLjUsNDg1IiBmaWxsPSJub25lIiBzdHlsZT0ic3Ryb2tlOiMwMDAwMDA7c3Ryb2tlLXdpZHRoOjEuNTsiLz48bGluZSBzdHlsZT0ic3Ryb2tlOiMwMDAwMDA7c3Ryb2tlLXdpZHRoOjEuNTsiIHgxPSIxNDkiIHgyPSIyMzIiIHkxPSI1MDUuOTg0NCIgeTI9IjUwNS45ODQ0Ii8+PHRleHQgZmlsbD0iIzAwMDAwMCIgZm9udC1mYW1pbHk9InNhbnMtc2VyaWYiIGZvbnQtc2l6ZT0iMTQiIGZvbnQtd2VpZ2h0PSJib2xkIiBsZW5ndGhBZGp1c3Q9InNwYWNpbmciIHRleHRMZW5ndGg9IjcwIiB4PSIxNTMiIHk9IjUwMC4yMzQ0Ij5EYXRhIExheWVyPC90ZXh0PjwvZz48IS0tZW50aXR5IFN0dWRlbnQgUG9ydGFsLS0+PGcgY2xhc3M9ImVudGl0eSIgZGF0YS1lbnRpdHk9IlN0dWRlbnQgUG9ydGFsIiBkYXRhLXNvdXJjZS1saW5lPSIxMSIgZGF0YS11aWQ9ImVudDAwMDMiIGlkPSJlbnRpdHlfU3R1ZGVudCBQb3J0YWwiPjxyZWN0IGZpbGw9IiNEQUU4RkMiIGhlaWdodD0iNDkuOTY4OCIgcng9IjIuNSIgcnk9IjIuNSIgc3R5bGU9InN0cm9rZTojMDAwMDAwO3N0cm9rZS13aWR0aDowLjU7IiB3aWR0aD0iMTE4IiB4PSI2OTgiIHk9IjM5Ii8+PHRleHQgZmlsbD0iIzAwMDAwMCIgZm9udC1mYW1pbHk9InNhbnMtc2VyaWYiIGZvbnQtc2l6ZT0iMTQiIGZvbnQtc3R5bGU9Iml0YWxpYyIgbGVuZ3RoQWRqdXN0PSJzcGFjaW5nIiB0ZXh0TGVuZ3RoPSI3MCIgeD0iNzIyIiB5PSI2Mi4yMzQ0Ij4mIzE3MTtGcm9udGVuZCYjMTg3OzwvdGV4dD48dGV4dCBmaWxsPSIjMDAwMDAwIiBmb250LWZhbWlseT0ic2Fucy1zZXJpZiIgZm9udC1zaXplPSIxNCIgbGVuZ3RoQWRqdXN0PSJzcGFjaW5nIiB0ZXh0TGVuZ3RoPSI5OCIgeD0iNzA4IiB5PSI3Ny4yMTg4Ij5TdHVkZW50IFBvcnRhbDwvdGV4dD48L2c+PCEtLWVudGl0eSBBZG1pbiBEYXNoYm9hcmQtLT48ZyBjbGFzcz0iZW50aXR5IiBkYXRhLWVudGl0eT0iQWRtaW4gRGFzaGJvYXJkIiBkYXRhLXNvdXJjZS1saW5lPSIxMiIgZGF0YS11aWQ9ImVudDAwMDQiIGlkPSJlbnRpdHlfQWRtaW4gRGFzaGJvYXJkIj48cmVjdCBmaWxsPSIjREFFOEZDIiBoZWlnaHQ9IjQ5Ljk2ODgiIHJ4PSIyLjUiIHJ5PSIyLjUiIHN0eWxlPSJzdHJva2U6IzAwMDAwMDtzdHJva2Utd2lkdGg6MC41OyIgd2lkdGg9IjEyNSIgeD0iNTM3LjUiIHk9IjM5Ii8+PHRleHQgZmlsbD0iIzAwMDAwMCIgZm9udC1mYW1pbHk9InNhbnMtc2VyaWYiIGZvbnQtc2l6ZT0iMTQiIGZvbnQtc3R5bGU9Iml0YWxpYyIgbGVuZ3RoQWRqdXN0PSJzcGFjaW5nIiB0ZXh0TGVuZ3RoPSI3MCIgeD0iNTY1IiB5PSI2Mi4yMzQ0Ij4mIzE3MTtGcm9udGVuZCYjMTg3OzwvdGV4dD48dGV4dCBmaWxsPSIjMDAwMDAwIiBmb250LWZhbWlseT0ic2Fucy1zZXJpZiIgZm9udC1zaXplPSIxNCIgbGVuZ3RoQWRqdXN0PSJzcGFjaW5nIiB0ZXh0TGVuZ3RoPSIxMDUiIHg9IjU0Ny41IiB5PSI3Ny4yMTg4Ij5BZG1pbiBEYXNoYm9hcmQ8L3RleHQ+PC9nPjwhLS1lbnRpdHkgRmluYW5jZSBWaWV3LS0+PGcgY2xhc3M9ImVudGl0eSIgZGF0YS1lbnRpdHk9IkZpbmFuY2UgVmlldyIgZGF0YS1zb3VyY2UtbGluZT0iMTMiIGRhdGEtdWlkPSJlbnQwMDA1IiBpZD0iZW50aXR5X0ZpbmFuY2UgVmlldyI+PHJlY3QgZmlsbD0iI0RBRThGQyIgaGVpZ2h0PSI0OS45Njg4IiByeD0iMi41IiByeT0iMi41IiBzdHlsZT0ic3Ryb2tlOiMwMDAwMDA7c3Ryb2tlLXdpZHRoOjAuNTsiIHdpZHRoPSIxMDQiIHg9IjM5OCIgeT0iMzkiLz48dGV4dCBmaWxsPSIjMDAwMDAwIiBmb250LWZhbWlseT0ic2Fucy1zZXJpZiIgZm9udC1zaXplPSIxNCIgZm9udC1zdHlsZT0iaXRhbGljIiBsZW5ndGhBZGp1c3Q9InNwYWNpbmciIHRleHRMZW5ndGg9IjcwIiB4PSI0MTUiIHk9IjYyLjIzNDQiPiYjMTcxO0Zyb250ZW5kJiMxODc7PC90ZXh0Pjx0ZXh0IGZpbGw9IiMwMDAwMDAiIGZvbnQtZmFtaWx5PSJzYW5zLXNlcmlmIiBmb250LXNpemU9IjE0IiBsZW5ndGhBZGp1c3Q9InNwYWNpbmciIHRleHRMZW5ndGg9Ijg0IiB4PSI0MDgiIHk9Ijc3LjIxODgiPkZpbmFuY2UgVmlldzwvdGV4dD48L2c+PCEtLWVudGl0eSBXb3JrZmxvdyBFbmdpbmUtLT48ZyBjbGFzcz0iZW50aXR5IiBkYXRhLWVudGl0eT0iV29ya2Zsb3cgRW5naW5lIiBkYXRhLXNvdXJjZS1saW5lPSIxNyIgZGF0YS11aWQ9ImVudDAwMDciIGlkPSJlbnRpdHlfV29ya2Zsb3cgRW5naW5lIj48cmVjdCBmaWxsPSIjRjhDRUNDIiBoZWlnaHQ9IjQ5Ljk2ODgiIHJ4PSIyLjUiIHJ5PSIyLjUiIHN0eWxlPSJzdHJva2U6IzAwMDAwMDtzdHJva2Utd2lkdGg6MC41OyIgd2lkdGg9IjEyNSIgeD0iNTM3LjUiIHk9IjE2MiIvPjx0ZXh0IGZpbGw9IiMwMDAwMDAiIGZvbnQtZmFtaWx5PSJzYW5zLXNlcmlmIiBmb250LXNpemU9IjE0IiBmb250LXN0eWxlPSJpdGFsaWMiIGxlbmd0aEFkanVzdD0ic3BhY2luZyIgdGV4dExlbmd0aD0iNjMiIHg9IjU2OC41IiB5PSIxODUuMjM0NCI+JiMxNzE7U2VydmljZSYjMTg3OzwvdGV4dD48dGV4dCBmaWxsPSIjMDAwMDAwIiBmb250LWZhbWlseT0ic2Fucy1zZXJpZiIgZm9udC1zaXplPSIxNCIgbGVuZ3RoQWRqdXN0PSJzcGFjaW5nIiB0ZXh0TGVuZ3RoPSIxMDUiIHg9IjU0Ny41IiB5PSIyMDAuMjE4OCI+V29ya2Zsb3cgRW5naW5lPC90ZXh0PjwvZz48IS0tZW50aXR5IE5vdGlmaWNhdGlvbiBTZXJ2aWNlLS0+PGcgY2xhc3M9ImVudGl0eSIgZGF0YS1lbnRpdHk9Ik5vdGlmaWNhdGlvbiBTZXJ2aWNlIiBkYXRhLXNvdXJjZS1saW5lPSIxOCIgZGF0YS11aWQ9ImVudDAwMDgiIGlkPSJlbnRpdHlfTm90aWZpY2F0aW9uIFNlcnZpY2UiPjxyZWN0IGZpbGw9IiNGOENFQ0MiIGhlaWdodD0iNDkuOTY4OCIgcng9IjIuNSIgcnk9IjIuNSIgc3R5bGU9InN0cm9rZTojMDAwMDAwO3N0cm9rZS13aWR0aDowLjU7IiB3aWR0aD0iMTYwIiB4PSI2OTgiIHk9IjE2MiIvPjx0ZXh0IGZpbGw9IiMwMDAwMDAiIGZvbnQtZmFtaWx5PSJzYW5zLXNlcmlmIiBmb250LXNpemU9IjE0IiBmb250LXN0eWxlPSJpdGFsaWMiIGxlbmd0aEFkanVzdD0ic3BhY2luZyIgdGV4dExlbmd0aD0iNjMiIHg9Ijc0Ni41IiB5PSIxODUuMjM0NCI+JiMxNzE7U2VydmljZSYjMTg3OzwvdGV4dD48dGV4dCBmaWxsPSIjMDAwMDAwIiBmb250LWZhbWlseT0ic2Fucy1zZXJpZiIgZm9udC1zaXplPSIxNCIgbGVuZ3RoQWRqdXN0PSJzcGFjaW5nIiB0ZXh0TGVuZ3RoPSIxNDAiIHg9IjcwOCIgeT0iMjAwLjIxODgiPk5vdGlmaWNhdGlvbiBTZXJ2aWNlPC90ZXh0PjwvZz48IS0tZW50aXR5IEF1dGggU2VydmljZS0tPjxnIGNsYXNzPSJlbnRpdHkiIGRhdGEtZW50aXR5PSJBdXRoIFNlcnZpY2UiIGRhdGEtc291cmNlLWxpbmU9IjE5IiBkYXRhLXVpZD0iZW50MDAwOSIgaWQ9ImVudGl0eV9BdXRoIFNlcnZpY2UiPjxyZWN0IGZpbGw9IiNGOENFQ0MiIGhlaWdodD0iNDkuOTY4OCIgcng9IjIuNSIgcnk9IjIuNSIgc3R5bGU9InN0cm9rZTojMDAwMDAwO3N0cm9rZS13aWR0aDowLjU7IiB3aWR0aD0iMTA0IiB4PSIzOTgiIHk9IjE2MiIvPjx0ZXh0IGZpbGw9IiMwMDAwMDAiIGZvbnQtZmFtaWx5PSJzYW5zLXNlcmlmIiBmb250LXNpemU9IjE0IiBmb250LXN0eWxlPSJpdGFsaWMiIGxlbmd0aEFkanVzdD0ic3BhY2luZyIgdGV4dExlbmd0aD0iNjMiIHg9IjQxOC41IiB5PSIxODUuMjM0NCI+JiMxNzE7U2VydmljZSYjMTg3OzwvdGV4dD48dGV4dCBmaWxsPSIjMDAwMDAwIiBmb250LWZhbWlseT0ic2Fucy1zZXJpZiIgZm9udC1zaXplPSIxNCIgbGVuZ3RoQWRqdXN0PSJzcGFjaW5nIiB0ZXh0TGVuZ3RoPSI4NCIgeD0iNDA4IiB5PSIyMDAuMjE4OCI+QXV0aCBTZXJ2aWNlPC90ZXh0PjwvZz48IS0tZW50aXR5IEFjY2VzcyBDb250cm9sLS0+PGcgY2xhc3M9ImVudGl0eSIgZGF0YS1lbnRpdHk9IkFjY2VzcyBDb250cm9sIiBkYXRhLXNvdXJjZS1saW5lPSIyMCIgZGF0YS11aWQ9ImVudDAwMTAiIGlkPSJlbnRpdHlfQWNjZXNzIENvbnRyb2wiPjxyZWN0IGZpbGw9IiNGOENFQ0MiIGhlaWdodD0iNDkuOTY4OCIgcng9IjIuNSIgcnk9IjIuNSIgc3R5bGU9InN0cm9rZTojMDAwMDAwO3N0cm9rZS13aWR0aDowLjU7IiB3aWR0aD0iMTE4IiB4PSIzOTgiIHk9IjI3MiIvPjx0ZXh0IGZpbGw9IiMwMDAwMDAiIGZvbnQtZmFtaWx5PSJzYW5zLXNlcmlmIiBmb250LXNpemU9IjE0IiBmb250LXN0eWxlPSJpdGFsaWMiIGxlbmd0aEFkanVzdD0ic3BhY2luZyIgdGV4dExlbmd0aD0iNjMiIHg9IjQyNS41IiB5PSIyOTUuMjM0NCI+JiMxNzE7U2VydmljZSYjMTg3OzwvdGV4dD48dGV4dCBmaWxsPSIjMDAwMDAwIiBmb250LWZhbWlseT0ic2Fucy1zZXJpZiIgZm9udC1zaXplPSIxNCIgbGVuZ3RoQWRqdXN0PSJzcGFjaW5nIiB0ZXh0TGVuZ3RoPSI5OCIgeD0iNDA4IiB5PSIzMTAuMjE4OCI+QWNjZXNzIENvbnRyb2w8L3RleHQ+PC9nPjwhLS1lbnRpdHkgU2Nob2xhcnNoaXAgTWFuYWdlci0tPjxnIGNsYXNzPSJlbnRpdHkiIGRhdGEtZW50aXR5PSJTY2hvbGFyc2hpcCBNYW5hZ2VyIiBkYXRhLXNvdXJjZS1saW5lPSIyNCIgZGF0YS11aWQ9ImVudDAwMTIiIGlkPSJlbnRpdHlfU2Nob2xhcnNoaXAgTWFuYWdlciI+PHJlY3QgZmlsbD0iI0Y4Q0VDQyIgaGVpZ2h0PSI0OS45Njg4IiByeD0iMi41IiByeT0iMi41IiBzdHlsZT0ic3Ryb2tlOiMwMDAwMDA7c3Ryb2tlLXdpZHRoOjAuNTsiIHdpZHRoPSIxNTMiIHg9IjQ4OC41IiB5PSIzOTUiLz48dGV4dCBmaWxsPSIjMDAwMDAwIiBmb250LWZhbWlseT0ic2Fucy1zZXJpZiIgZm9udC1zaXplPSIxNCIgZm9udC1zdHlsZT0iaXRhbGljIiBsZW5ndGhBZGp1c3Q9InNwYWNpbmciIHRleHRMZW5ndGg9IjYzIiB4PSI1MzMuNSIgeT0iNDE4LjIzNDQiPiYjMTcxO1NlcnZpY2UmIzE4Nzs8L3RleHQ+PHRleHQgZmlsbD0iIzAwMDAwMCIgZm9udC1mYW1pbHk9InNhbnMtc2VyaWYiIGZvbnQtc2l6ZT0iMTQiIGxlbmd0aEFkanVzdD0ic3BhY2luZyIgdGV4dExlbmd0aD0iMTMzIiB4PSI0OTguNSIgeT0iNDMzLjIxODgiPlNjaG9sYXJzaGlwIE1hbmFnZXI8L3RleHQ+PC9nPjwhLS1lbnRpdHkgRGlzY291bnQgTWFuYWdlci0tPjxnIGNsYXNzPSJlbnRpdHkiIGRhdGEtZW50aXR5PSJEaXNjb3VudCBNYW5hZ2VyIiBkYXRhLXNvdXJjZS1saW5lPSIyNSIgZGF0YS11aWQ9ImVudDAwMTMiIGlkPSJlbnRpdHlfRGlzY291bnQgTWFuYWdlciI+PHJlY3QgZmlsbD0iI0Y4Q0VDQyIgaGVpZ2h0PSI0OS45Njg4IiByeD0iMi41IiByeT0iMi41IiBzdHlsZT0ic3Ryb2tlOiMwMDAwMDA7c3Ryb2tlLXdpZHRoOjAuNTsiIHdpZHRoPSIxMzIiIHg9IjY3NyIgeT0iMzk1Ii8+PHRleHQgZmlsbD0iIzAwMDAwMCIgZm9udC1mYW1pbHk9InNhbnMtc2VyaWYiIGZvbnQtc2l6ZT0iMTQiIGZvbnQtc3R5bGU9Iml0YWxpYyIgbGVuZ3RoQWRqdXN0PSJzcGFjaW5nIiB0ZXh0TGVuZ3RoPSI2MyIgeD0iNzExLjUiIHk9IjQxOC4yMzQ0Ij4mIzE3MTtTZXJ2aWNlJiMxODc7PC90ZXh0Pjx0ZXh0IGZpbGw9IiMwMDAwMDAiIGZvbnQtZmFtaWx5PSJzYW5zLXNlcmlmIiBmb250LXNpemU9IjE0IiBsZW5ndGhBZGp1c3Q9InNwYWNpbmciIHRleHRMZW5ndGg9IjExMiIgeD0iNjg3IiB5PSI0MzMuMjE4OCI+RGlzY291bnQgTWFuYWdlcjwvdGV4dD48L2c+PCEtLWVudGl0eSBHUEEgTW9uaXRvci0tPjxnIGNsYXNzPSJlbnRpdHkiIGRhdGEtZW50aXR5PSJHUEEgTW9uaXRvciIgZGF0YS1zb3VyY2UtbGluZT0iMjYiIGRhdGEtdWlkPSJlbnQwMDE0IiBpZD0iZW50aXR5X0dQQSBNb25pdG9yIj48cmVjdCBmaWxsPSIjRjhDRUNDIiBoZWlnaHQ9IjQ5Ljk2ODgiIHJ4PSIyLjUiIHJ5PSIyLjUiIHN0eWxlPSJzdHJva2U6IzAwMDAwMDtzdHJva2Utd2lkdGg6MC41OyIgd2lkdGg9Ijk3IiB4PSI4NDQuNSIgeT0iMzk1Ii8+PHRleHQgZmlsbD0iIzAwMDAwMCIgZm9udC1mYW1pbHk9InNhbnMtc2VyaWYiIGZvbnQtc2l6ZT0iMTQiIGZvbnQtc3R5bGU9Iml0YWxpYyIgbGVuZ3RoQWRqdXN0PSJzcGFjaW5nIiB0ZXh0TGVuZ3RoPSI2MyIgeD0iODYxLjUiIHk9IjQxOC4yMzQ0Ij4mIzE3MTtTZXJ2aWNlJiMxODc7PC90ZXh0Pjx0ZXh0IGZpbGw9IiMwMDAwMDAiIGZvbnQtZmFtaWx5PSJzYW5zLXNlcmlmIiBmb250LXNpemU9IjE0IiBsZW5ndGhBZGp1c3Q9InNwYWNpbmciIHRleHRMZW5ndGg9Ijc3IiB4PSI4NTQuNSIgeT0iNDMzLjIxODgiPkdQQSBNb25pdG9yPC90ZXh0PjwvZz48IS0tZW50aXR5IFF1b3RhIFRyYWNrZXItLT48ZyBjbGFzcz0iZW50aXR5IiBkYXRhLWVudGl0eT0iUXVvdGEgVHJhY2tlciIgZGF0YS1zb3VyY2UtbGluZT0iMjciIGRhdGEtdWlkPSJlbnQwMDE1IiBpZD0iZW50aXR5X1F1b3RhIFRyYWNrZXIiPjxyZWN0IGZpbGw9IiNGOENFQ0MiIGhlaWdodD0iNDkuOTY4OCIgcng9IjIuNSIgcnk9IjIuNSIgc3R5bGU9InN0cm9rZTojMDAwMDAwO3N0cm9rZS13aWR0aDowLjU7IiB3aWR0aD0iMTExIiB4PSIzNDIuNSIgeT0iMzk1Ii8+PHRleHQgZmlsbD0iIzAwMDAwMCIgZm9udC1mYW1pbHk9InNhbnMtc2VyaWYiIGZvbnQtc2l6ZT0iMTQiIGZvbnQtc3R5bGU9Iml0YWxpYyIgbGVuZ3RoQWRqdXN0PSJzcGFjaW5nIiB0ZXh0TGVuZ3RoPSI2MyIgeD0iMzY2LjUiIHk9IjQxOC4yMzQ0Ij4mIzE3MTtTZXJ2aWNlJiMxODc7PC90ZXh0Pjx0ZXh0IGZpbGw9IiMwMDAwMDAiIGZvbnQtZmFtaWx5PSJzYW5zLXNlcmlmIiBmb250LXNpemU9IjE0IiBsZW5ndGhBZGp1c3Q9InNwYWNpbmciIHRleHRMZW5ndGg9IjkxIiB4PSIzNTIuNSIgeT0iNDMzLjIxODgiPlF1b3RhIFRyYWNrZXI8L3RleHQ+PC9nPjwhLS1lbnRpdHkgUnVsZXMgRW5naW5lLS0+PGcgY2xhc3M9ImVudGl0eSIgZGF0YS1lbnRpdHk9IlJ1bGVzIEVuZ2luZSIgZGF0YS1zb3VyY2UtbGluZT0iMjgiIGRhdGEtdWlkPSJlbnQwMDE2IiBpZD0iZW50aXR5X1J1bGVzIEVuZ2luZSI+PHJlY3QgZmlsbD0iI0Y4Q0VDQyIgaGVpZ2h0PSI0OS45Njg4IiByeD0iMi41IiByeT0iMi41IiBzdHlsZT0ic3Ryb2tlOiMwMDAwMDA7c3Ryb2tlLXdpZHRoOjAuNTsiIHdpZHRoPSIxMDQiIHg9IjIwMyIgeT0iMzk1Ii8+PHRleHQgZmlsbD0iIzAwMDAwMCIgZm9udC1mYW1pbHk9InNhbnMtc2VyaWYiIGZvbnQtc2l6ZT0iMTQiIGZvbnQtc3R5bGU9Iml0YWxpYyIgbGVuZ3RoQWRqdXN0PSJzcGFjaW5nIiB0ZXh0TGVuZ3RoPSI2MyIgeD0iMjIzLjUiIHk9IjQxOC4yMzQ0Ij4mIzE3MTtTZXJ2aWNlJiMxODc7PC90ZXh0Pjx0ZXh0IGZpbGw9IiMwMDAwMDAiIGZvbnQtZmFtaWx5PSJzYW5zLXNlcmlmIiBmb250LXNpemU9IjE0IiBsZW5ndGhBZGp1c3Q9InNwYWNpbmciIHRleHRMZW5ndGg9Ijg0IiB4PSIyMTMiIHk9IjQzMy4yMTg4Ij5SdWxlcyBFbmdpbmU8L3RleHQ+PC9nPjwhLS1lbnRpdHkgRG9jdW1lbnQgVmFsaWRhdG9yLS0+PGcgY2xhc3M9ImVudGl0eSIgZGF0YS1lbnRpdHk9IkRvY3VtZW50IFZhbGlkYXRvciIgZGF0YS1zb3VyY2UtbGluZT0iMjkiIGRhdGEtdWlkPSJlbnQwMDE3IiBpZD0iZW50aXR5X0RvY3VtZW50IFZhbGlkYXRvciI+PHJlY3QgZmlsbD0iI0Y4Q0VDQyIgaGVpZ2h0PSI0OS45Njg4IiByeD0iMi41IiByeT0iMi41IiBzdHlsZT0ic3Ryb2tlOiMwMDAwMDA7c3Ryb2tlLXdpZHRoOjAuNTsiIHdpZHRoPSIxNDYiIHg9IjIyIiB5PSIzOTUiLz48dGV4dCBmaWxsPSIjMDAwMDAwIiBmb250LWZhbWlseT0ic2Fucy1zZXJpZiIgZm9udC1zaXplPSIxNCIgZm9udC1zdHlsZT0iaXRhbGljIiBsZW5ndGhBZGp1c3Q9InNwYWNpbmciIHRleHRMZW5ndGg9IjYzIiB4PSI2My41IiB5PSI0MTguMjM0NCI+JiMxNzE7U2VydmljZSYjMTg3OzwvdGV4dD48dGV4dCBmaWxsPSIjMDAwMDAwIiBmb250LWZhbWlseT0ic2Fucy1zZXJpZiIgZm9udC1zaXplPSIxNCIgbGVuZ3RoQWRqdXN0PSJzcGFjaW5nIiB0ZXh0TGVuZ3RoPSIxMjYiIHg9IjMyIiB5PSI0MzMuMjE4OCI+RG9jdW1lbnQgVmFsaWRhdG9yPC90ZXh0PjwvZz48IS0tZW50aXR5IFN0dWRlbnQgRGF0YWJhc2UtLT48ZyBjbGFzcz0iZW50aXR5IiBkYXRhLWVudGl0eT0iU3R1ZGVudCBEYXRhYmFzZSIgZGF0YS1zb3VyY2UtbGluZT0iMzMiIGRhdGEtdWlkPSJlbnQwMDE5IiBpZD0iZW50aXR5X1N0dWRlbnQgRGF0YWJhc2UiPjxyZWN0IGZpbGw9IiNENUU4RDQiIGhlaWdodD0iNDkuOTY4OCIgcng9IjIuNSIgcnk9IjIuNSIgc3R5bGU9InN0cm9rZTojMDAwMDAwO3N0cm9rZS13aWR0aDowLjU7IiB3aWR0aD0iMTMyIiB4PSIzMzIiIHk9IjUxOCIvPjx0ZXh0IGZpbGw9IiMwMDAwMDAiIGZvbnQtZmFtaWx5PSJzYW5zLXNlcmlmIiBmb250LXNpemU9IjE0IiBmb250LXN0eWxlPSJpdGFsaWMiIGxlbmd0aEFkanVzdD0ic3BhY2luZyIgdGV4dExlbmd0aD0iNzAiIHg9IjM2MyIgeT0iNTQxLjIzNDQiPiYjMTcxO0RhdGFiYXNlJiMxODc7PC90ZXh0Pjx0ZXh0IGZpbGw9IiMwMDAwMDAiIGZvbnQtZmFtaWx5PSJzYW5zLXNlcmlmIiBmb250LXNpemU9IjE0IiBsZW5ndGhBZGp1c3Q9InNwYWNpbmciIHRleHRMZW5ndGg9IjExMiIgeD0iMzQyIiB5PSI1NTYuMjE4OCI+U3R1ZGVudCBEYXRhYmFzZTwvdGV4dD48L2c+PCEtLWVudGl0eSBTY2hvbGFyc2hpcCBDb25maWcgREItLT48ZyBjbGFzcz0iZW50aXR5IiBkYXRhLWVudGl0eT0iU2Nob2xhcnNoaXAgQ29uZmlnIERCIiBkYXRhLXNvdXJjZS1saW5lPSIzNCIgZGF0YS11aWQ9ImVudDAwMjAiIGlkPSJlbnRpdHlfU2Nob2xhcnNoaXAgQ29uZmlnIERCIj48cmVjdCBmaWxsPSIjRDVFOEQ0IiBoZWlnaHQ9IjQ5Ljk2ODgiIHJ4PSIyLjUiIHJ5PSIyLjUiIHN0eWxlPSJzdHJva2U6IzAwMDAwMDtzdHJva2Utd2lkdGg6MC41OyIgd2lkdGg9IjE2NyIgeD0iNjI2LjUiIHk9IjUxOCIvPjx0ZXh0IGZpbGw9IiMwMDAwMDAiIGZvbnQtZmFtaWx5PSJzYW5zLXNlcmlmIiBmb250LXNpemU9IjE0IiBmb250LXN0eWxlPSJpdGFsaWMiIGxlbmd0aEFkanVzdD0ic3BhY2luZyIgdGV4dExlbmd0aD0iNzAiIHg9IjY3NSIgeT0iNTQxLjIzNDQiPiYjMTcxO0RhdGFiYXNlJiMxODc7PC90ZXh0Pjx0ZXh0IGZpbGw9IiMwMDAwMDAiIGZvbnQtZmFtaWx5PSJzYW5zLXNlcmlmIiBmb250LXNpemU9IjE0IiBsZW5ndGhBZGp1c3Q9InNwYWNpbmciIHRleHRMZW5ndGg9IjE0NyIgeD0iNjM2LjUiIHk9IjU1Ni4yMTg4Ij5TY2hvbGFyc2hpcCBDb25maWcgREI8L3RleHQ+PC9nPjwhLS1lbnRpdHkgRG9jdW1lbnQgU3RvcmFnZS0tPjxnIGNsYXNzPSJlbnRpdHkiIGRhdGEtZW50aXR5PSJEb2N1bWVudCBTdG9yYWdlIiBkYXRhLXNvdXJjZS1saW5lPSIzNSIgZGF0YS11aWQ9ImVudDAwMjEiIGlkPSJlbnRpdHlfRG9jdW1lbnQgU3RvcmFnZSI+PHJlY3QgZmlsbD0iI0Q1RThENCIgaGVpZ2h0PSI0OS45Njg4IiByeD0iMi41IiByeT0iMi41IiBzdHlsZT0ic3Ryb2tlOiMwMDAwMDA7c3Ryb2tlLXdpZHRoOjAuNTsiIHdpZHRoPSIxMzIiIHg9IjE2NSIgeT0iNTE4Ii8+PHRleHQgZmlsbD0iIzAwMDAwMCIgZm9udC1mYW1pbHk9InNhbnMtc2VyaWYiIGZvbnQtc2l6ZT0iMTQiIGZvbnQtc3R5bGU9Iml0YWxpYyIgbGVuZ3RoQWRqdXN0PSJzcGFjaW5nIiB0ZXh0TGVuZ3RoPSI3MCIgeD0iMTk2IiB5PSI1NDEuMjM0NCI+JiMxNzE7RGF0YWJhc2UmIzE4Nzs8L3RleHQ+PHRleHQgZmlsbD0iIzAwMDAwMCIgZm9udC1mYW1pbHk9InNhbnMtc2VyaWYiIGZvbnQtc2l6ZT0iMTQiIGxlbmd0aEFkanVzdD0ic3BhY2luZyIgdGV4dExlbmd0aD0iMTEyIiB4PSIxNzUiIHk9IjU1Ni4yMTg4Ij5Eb2N1bWVudCBTdG9yYWdlPC90ZXh0PjwvZz48IS0tZW50aXR5IEdQQSBMb2dzIERCLS0+PGcgY2xhc3M9ImVudGl0eSIgZGF0YS1lbnRpdHk9IkdQQSBMb2dzIERCIiBkYXRhLXNvdXJjZS1saW5lPSIzNiIgZGF0YS11aWQ9ImVudDAwMjIiIGlkPSJlbnRpdHlfR1BBIExvZ3MgREIiPjxyZWN0IGZpbGw9IiNENUU4RDQiIGhlaWdodD0iNDkuOTY4OCIgcng9IjIuNSIgcnk9IjIuNSIgc3R5bGU9InN0cm9rZTojMDAwMDAwO3N0cm9rZS13aWR0aDowLjU7IiB3aWR0aD0iOTciIHg9IjgyOC41IiB5PSI1MTgiLz48dGV4dCBmaWxsPSIjMDAwMDAwIiBmb250LWZhbWlseT0ic2Fucy1zZXJpZiIgZm9udC1zaXplPSIxNCIgZm9udC1zdHlsZT0iaXRhbGljIiBsZW5ndGhBZGp1c3Q9InNwYWNpbmciIHRleHRMZW5ndGg9IjcwIiB4PSI4NDIiIHk9IjU0MS4yMzQ0Ij4mIzE3MTtEYXRhYmFzZSYjMTg3OzwvdGV4dD48dGV4dCBmaWxsPSIjMDAwMDAwIiBmb250LWZhbWlseT0ic2Fucy1zZXJpZiIgZm9udC1zaXplPSIxNCIgbGVuZ3RoQWRqdXN0PSJzcGFjaW5nIiB0ZXh0TGVuZ3RoPSI3NyIgeD0iODM4LjUiIHk9IjU1Ni4yMTg4Ij5HUEEgTG9ncyBEQjwvdGV4dD48L2c+PCEtLWVudGl0eSBBdWRpdCBMb2dzLS0+PGcgY2xhc3M9ImVudGl0eSIgZGF0YS1lbnRpdHk9IkF1ZGl0IExvZ3MiIGRhdGEtc291cmNlLWxpbmU9IjM3IiBkYXRhLXVpZD0iZW50MDAyMyIgaWQ9ImVudGl0eV9BdWRpdCBMb2dzIj48cmVjdCBmaWxsPSIjRDVFOEQ0IiBoZWlnaHQ9IjQ5Ljk2ODgiIHJ4PSIyLjUiIHJ5PSIyLjUiIHN0eWxlPSJzdHJva2U6IzAwMDAwMDtzdHJva2Utd2lkdGg6MC41OyIgd2lkdGg9IjkyIiB4PSI0OTkiIHk9IjUxOCIvPjx0ZXh0IGZpbGw9IiMwMDAwMDAiIGZvbnQtZmFtaWx5PSJzYW5zLXNlcmlmIiBmb250LXNpemU9IjE0IiBmb250LXN0eWxlPSJpdGFsaWMiIGxlbmd0aEFkanVzdD0ic3BhY2luZyIgdGV4dExlbmd0aD0iNzAiIHg9IjUxMCIgeT0iNTQxLjIzNDQiPiYjMTcxO0RhdGFiYXNlJiMxODc7PC90ZXh0Pjx0ZXh0IGZpbGw9IiMwMDAwMDAiIGZvbnQtZmFtaWx5PSJzYW5zLXNlcmlmIiBmb250LXNpemU9IjE0IiBsZW5ndGhBZGp1c3Q9InNwYWNpbmciIHRleHRMZW5ndGg9IjcwIiB4PSI1MTAiIHk9IjU1Ni4yMTg4Ij5BdWRpdCBMb2dzPC90ZXh0PjwvZz48IS0tbGluayBTdHVkZW50IFBvcnRhbCB0byBXb3JrZmxvdyBFbmdpbmUtLT48ZyBjbGFzcz0ibGluayIgZGF0YS1lbnRpdHktMT0iU3R1ZGVudCBQb3J0YWwiIGRhdGEtZW50aXR5LTI9IldvcmtmbG93IEVuZ2luZSIgZGF0YS1zb3VyY2UtbGluZT0iNDEiIGRhdGEtdWlkPSJsbmsyNCIgaWQ9ImxpbmtfU3R1ZGVudCBQb3J0YWxfV29ya2Zsb3cgRW5naW5lIj48cGF0aCBkPSJNNzIzLjQ4LDg5LjI0IEM3MTAuMTcsOTguOTkgNjk0Ljc3LDExMC40MSA2ODEsMTIxIEM2NjMuNzEsMTM0LjMgNjQ5LjMzMTksMTQ1Ljc3MjkgNjM0LjA1MTksMTU4LjE1MjkiIGZpbGw9Im5vbmUiIGlkPSJTdHVkZW50IFBvcnRhbC10by1Xb3JrZmxvdyBFbmdpbmUiIHN0eWxlPSJzdHJva2U6IzE4MTgxODtzdHJva2Utd2lkdGg6MTsiLz48cG9seWdvbiBmaWxsPSIjMTgxODE4IiBwb2ludHM9IjYyOS4zOSwxNjEuOTMsNjM4LjkwMDksMTU5LjM3MjMsNjMzLjI3NDksMTU4Ljc4MjQsNjMzLjg2NDgsMTUzLjE1NjQsNjI5LjM5LDE2MS45MyIgc3R5bGU9InN0cm9rZTojMTgxODE4O3N0cm9rZS13aWR0aDoxOyIvPjwvZz48IS0tbGluayBBZG1pbiBEYXNoYm9hcmQgdG8gV29ya2Zsb3cgRW5naW5lLS0+PGcgY2xhc3M9ImxpbmsiIGRhdGEtZW50aXR5LTE9IkFkbWluIERhc2hib2FyZCIgZGF0YS1lbnRpdHktMj0iV29ya2Zsb3cgRW5naW5lIiBkYXRhLXNvdXJjZS1saW5lPSI0MiIgZGF0YS11aWQ9ImxuazI1IiBpZD0ibGlua19BZG1pbiBEYXNoYm9hcmRfV29ya2Zsb3cgRW5naW5lIj48cGF0aCBkPSJNNjAwLDg5LjIgQzYwMCwxMTAuMyA2MDAsMTM0Ljc2IDYwMCwxNTUuODUiIGZpbGw9Im5vbmUiIGlkPSJBZG1pbiBEYXNoYm9hcmQtdG8tV29ya2Zsb3cgRW5naW5lIiBzdHlsZT0ic3Ryb2tlOiMxODE4MTg7c3Ryb2tlLXdpZHRoOjE7Ii8+PHBvbHlnb24gZmlsbD0iIzE4MTgxOCIgcG9pbnRzPSI2MDAsMTYxLjg1LDYwNCwxNTIuODUsNjAwLDE1Ni44NSw1OTYsMTUyLjg1LDYwMCwxNjEuODUiIHN0eWxlPSJzdHJva2U6IzE4MTgxODtzdHJva2Utd2lkdGg6MTsiLz48L2c+PCEtLWxpbmsgRmluYW5jZSBWaWV3IHRvIFdvcmtmbG93IEVuZ2luZS0tPjxnIGNsYXNzPSJsaW5rIiBkYXRhLWVudGl0eS0xPSJGaW5hbmNlIFZpZXciIGRhdGEtZW50aXR5LTI9IldvcmtmbG93IEVuZ2luZSIgZGF0YS1zb3VyY2UtbGluZT0iNDMiIGRhdGEtdWlkPSJsbmsyNiIgaWQ9ImxpbmtfRmluYW5jZSBWaWV3X1dvcmtmbG93IEVuZ2luZSI+PHBhdGggZD0iTTQ4MC4zNiw4OS4yMSBDNDkyLjY4LDk5LjA1IDUwNy4wNCwxMTAuNTUgNTIwLDEyMSBDNTM2LjcyLDEzNC40OCA1NTAuNjg3MiwxNDUuODExNyA1NjUuNzU3MiwxNTguMDgxNyIgZmlsbD0ibm9uZSIgaWQ9IkZpbmFuY2UgVmlldy10by1Xb3JrZmxvdyBFbmdpbmUiIHN0eWxlPSJzdHJva2U6IzE4MTgxODtzdHJva2Utd2lkdGg6MTsiLz48cG9seWdvbiBmaWxsPSIjMTgxODE4IiBwb2ludHM9IjU3MC40MSwxNjEuODcsNTY1Ljk1NjMsMTUzLjA4NTYsNTY2LjUzMjcsMTU4LjcxMzEsNTYwLjkwNTIsMTU5LjI4OTQsNTcwLjQxLDE2MS44NyIgc3R5bGU9InN0cm9rZTojMTgxODE4O3N0cm9rZS13aWR0aDoxOyIvPjwvZz48IS0tbGluayBXb3JrZmxvdyBFbmdpbmUgdG8gU2Nob2xhcnNoaXAgTWFuYWdlci0tPjxnIGNsYXNzPSJsaW5rIiBkYXRhLWVudGl0eS0xPSJXb3JrZmxvdyBFbmdpbmUiIGRhdGEtZW50aXR5LTI9IlNjaG9sYXJzaGlwIE1hbmFnZXIiIGRhdGEtc291cmNlLWxpbmU9IjQ2IiBkYXRhLXVpZD0ibG5rMjciIGlkPSJsaW5rX1dvcmtmbG93IEVuZ2luZV9TY2hvbGFyc2hpcCBNYW5hZ2VyIj48cGF0aCBkPSJNNTk2LjMyLDIxMi4yOCBDNTg5LjYsMjU2LjY1IDU3Ni4zMDk2LDM0NC4zNzc4IDU2OS41Nzk2LDM4OC43NTc4IiBmaWxsPSJub25lIiBpZD0iV29ya2Zsb3cgRW5naW5lLXRvLVNjaG9sYXJzaGlwIE1hbmFnZXIiIHN0eWxlPSJzdHJva2U6IzE4MTgxODtzdHJva2Utd2lkdGg6MTsiLz48cG9seWdvbiBmaWxsPSIjMTgxODE4IiBwb2ludHM9IjU2OC42OCwzOTQuNjksNTczLjk4NDIsMzg2LjM5MTUsNTY5LjQyOTcsMzg5Ljc0NjUsNTY2LjA3NDYsMzg1LjE5Miw1NjguNjgsMzk0LjY5IiBzdHlsZT0ic3Ryb2tlOiMxODE4MTg7c3Ryb2tlLXdpZHRoOjE7Ii8+PC9nPjwhLS1saW5rIFdvcmtmbG93IEVuZ2luZSB0byBEaXNjb3VudCBNYW5hZ2VyLS0+PGcgY2xhc3M9ImxpbmsiIGRhdGEtZW50aXR5LTE9IldvcmtmbG93IEVuZ2luZSIgZGF0YS1lbnRpdHktMj0iRGlzY291bnQgTWFuYWdlciIgZGF0YS1zb3VyY2UtbGluZT0iNDciIGRhdGEtdWlkPSJsbmsyOCIgaWQ9ImxpbmtfV29ya2Zsb3cgRW5naW5lX0Rpc2NvdW50IE1hbmFnZXIiPjxwYXRoIGQ9Ik02MTUuMDMsMjEyLjI4IEM2NDIuNSwyNTYuNjUgNjk3LjMyMjEsMzQ1LjIwODIgNzI0Ljc5MjEsMzg5LjU4ODIiIGZpbGw9Im5vbmUiIGlkPSJXb3JrZmxvdyBFbmdpbmUtdG8tRGlzY291bnQgTWFuYWdlciIgc3R5bGU9InN0cm9rZTojMTgxODE4O3N0cm9rZS13aWR0aDoxOyIvPjxwb2x5Z29uIGZpbGw9IiMxODE4MTgiIHBvaW50cz0iNzI3Ljk1LDM5NC42OSw3MjYuNjE0NCwzODQuOTMyMSw3MjUuMzE4NSwzOTAuNDM4NSw3MTkuODEyLDM4OS4xNDI2LDcyNy45NSwzOTQuNjkiIHN0eWxlPSJzdHJva2U6IzE4MTgxODtzdHJva2Utd2lkdGg6MTsiLz48L2c+PCEtLWxpbmsgTm90aWZpY2F0aW9uIFNlcnZpY2UgdG8gR1BBIE1vbml0b3ItLT48ZyBjbGFzcz0ibGluayIgZGF0YS1lbnRpdHktMT0iTm90aWZpY2F0aW9uIFNlcnZpY2UiIGRhdGEtZW50aXR5LTI9IkdQQSBNb25pdG9yIiBkYXRhLXNvdXJjZS1saW5lPSI0OCIgZGF0YS11aWQ9ImxuazI5IiBpZD0ibGlua19Ob3RpZmljYXRpb24gU2VydmljZV9HUEEgTW9uaXRvciI+PHBhdGggZD0iTTc5MC4wOSwyMTIuMjggQzgxMi4xOCwyNTYuNjUgODU2LjEzNjQsMzQ0LjkzODYgODc4LjIyNjQsMzg5LjMxODYiIGZpbGw9Im5vbmUiIGlkPSJOb3RpZmljYXRpb24gU2VydmljZS10by1HUEEgTW9uaXRvciIgc3R5bGU9InN0cm9rZTojMTgxODE4O3N0cm9rZS13aWR0aDoxOyIvPjxwb2x5Z29uIGZpbGw9IiMxODE4MTgiIHBvaW50cz0iODgwLjksMzk0LjY5LDg4MC40NzA1LDM4NC44NTA1LDg3OC42NzIsMzkwLjIxMzgsODczLjMwODcsMzg4LjQxNTMsODgwLjksMzk0LjY5IiBzdHlsZT0ic3Ryb2tlOiMxODE4MTg7c3Ryb2tlLXdpZHRoOjE7Ii8+PC9nPjwhLS1saW5rIEFjY2VzcyBDb250cm9sIHRvIFJ1bGVzIEVuZ2luZS0tPjxnIGNsYXNzPSJsaW5rIiBkYXRhLWVudGl0eS0xPSJBY2Nlc3MgQ29udHJvbCIgZGF0YS1lbnRpdHktMj0iUnVsZXMgRW5naW5lIiBkYXRhLXNvdXJjZS1saW5lPSI0OSIgZGF0YS11aWQ9ImxuazMwIiBpZD0ibGlua19BY2Nlc3MgQ29udHJvbF9SdWxlcyBFbmdpbmUiPjxwYXRoIGQ9Ik0zOTcuOTUsMzE3Ljk4IEMzNzQuMzMsMzI3LjI1IDM0Ny40NiwzMzkuNDUgMzI1LDM1NCBDMzA3LjMyLDM2NS40NSAyOTQuMTU3MywzNzcuMjUyNSAyODEuMTM3MywzOTAuNTUyNSIgZmlsbD0ibm9uZSIgaWQ9IkFjY2VzcyBDb250cm9sLXRvLVJ1bGVzIEVuZ2luZSIgc3R5bGU9InN0cm9rZTojMTgxODE4O3N0cm9rZS13aWR0aDoxOyIvPjxwb2x5Z29uIGZpbGw9IiMxODE4MTgiIHBvaW50cz0iMjc2Ljk0LDM5NC44NCwyODYuMDk0MywzOTEuMjA2OSwyODAuNDM3NywzOTEuMjY3MSwyODAuMzc3NSwzODUuNjEwNSwyNzYuOTQsMzk0Ljg0IiBzdHlsZT0ic3Ryb2tlOiMxODE4MTg7c3Ryb2tlLXdpZHRoOjE7Ii8+PC9nPjwhLS1saW5rIEF1dGggU2VydmljZSB0byBBY2Nlc3MgQ29udHJvbC0tPjxnIGNsYXNzPSJsaW5rIiBkYXRhLWVudGl0eS0xPSJBdXRoIFNlcnZpY2UiIGRhdGEtZW50aXR5LTI9IkFjY2VzcyBDb250cm9sIiBkYXRhLXNvdXJjZS1saW5lPSI1MCIgZGF0YS11aWQ9ImxuazMxIiBpZD0ibGlua19BdXRoIFNlcnZpY2VfQWNjZXNzIENvbnRyb2wiPjxwYXRoIGQ9Ik00NTEuNTcsMjEyLjI0IEM0NTIuNzIsMjMwLjAyIDQ1My44OTIzLDI0OC4wOTI1IDQ1NS4wNDIzLDI2NS44NTI1IiBmaWxsPSJub25lIiBpZD0iQXV0aCBTZXJ2aWNlLXRvLUFjY2VzcyBDb250cm9sIiBzdHlsZT0ic3Ryb2tlOiMxODE4MTg7c3Ryb2tlLXdpZHRoOjE7Ii8+PHBvbHlnb24gZmlsbD0iIzE4MTgxOCIgcG9pbnRzPSI0NTUuNDMsMjcxLjg0LDQ1OC44NDAxLDI2Mi42MDAzLDQ1NS4xMDY5LDI2Ni44NTA0LDQ1MC44NTY4LDI2My4xMTczLDQ1NS40MywyNzEuODQiIHN0eWxlPSJzdHJva2U6IzE4MTgxODtzdHJva2Utd2lkdGg6MTsiLz48L2c+PCEtLWxpbmsgU2Nob2xhcnNoaXAgTWFuYWdlciB0byBTY2hvbGFyc2hpcCBDb25maWcgREItLT48ZyBjbGFzcz0ibGluayIgZGF0YS1lbnRpdHktMT0iU2Nob2xhcnNoaXAgTWFuYWdlciIgZGF0YS1lbnRpdHktMj0iU2Nob2xhcnNoaXAgQ29uZmlnIERCIiBkYXRhLXNvdXJjZS1saW5lPSI1MyIgZGF0YS11aWQ9ImxuazMyIiBpZD0ibGlua19TY2hvbGFyc2hpcCBNYW5hZ2VyX1NjaG9sYXJzaGlwIENvbmZpZyBEQiI+PHBhdGggZD0iTTU5My45OSw0NDUuMiBDNjE5LjI4LDQ2Ni4zIDY1MS4xNzI4LDQ5Mi45MTY0IDY3Ni40NTI4LDUxNC4wMDY0IiBmaWxsPSJub25lIiBpZD0iU2Nob2xhcnNoaXAgTWFuYWdlci10by1TY2hvbGFyc2hpcCBDb25maWcgREIiIHN0eWxlPSJzdHJva2U6IzE4MTgxODtzdHJva2Utd2lkdGg6MTsiLz48cG9seWdvbiBmaWxsPSIjMTgxODE4IiBwb2ludHM9IjY4MS4wNiw1MTcuODUsNjc2LjcxMTYsNTA5LjAxMzEsNjc3LjIyMDYsNTE0LjY0Nyw2NzEuNTg2Nyw1MTUuMTU2MSw2ODEuMDYsNTE3Ljg1IiBzdHlsZT0ic3Ryb2tlOiMxODE4MTg7c3Ryb2tlLXdpZHRoOjE7Ii8+PC9nPjwhLS1saW5rIERpc2NvdW50IE1hbmFnZXIgdG8gU2Nob2xhcnNoaXAgQ29uZmlnIERCLS0+PGcgY2xhc3M9ImxpbmsiIGRhdGEtZW50aXR5LTE9IkRpc2NvdW50IE1hbmFnZXIiIGRhdGEtZW50aXR5LTI9IlNjaG9sYXJzaGlwIENvbmZpZyBEQiIgZGF0YS1zb3VyY2UtbGluZT0iNTQiIGRhdGEtdWlkPSJsbmszMyIgaWQ9ImxpbmtfRGlzY291bnQgTWFuYWdlcl9TY2hvbGFyc2hpcCBDb25maWcgREIiPjxwYXRoIGQ9Ik03MzYuNCw0NDUuMiBDNzMwLjY1LDQ2Ni4zIDcyMy45MTgyLDQ5MC45NzEzIDcxOC4xNjgyLDUxMi4wNjEzIiBmaWxsPSJub25lIiBpZD0iRGlzY291bnQgTWFuYWdlci10by1TY2hvbGFyc2hpcCBDb25maWcgREIiIHN0eWxlPSJzdHJva2U6IzE4MTgxODtzdHJva2Utd2lkdGg6MTsiLz48cG9seWdvbiBmaWxsPSIjMTgxODE4IiBwb2ludHM9IjcxNi41OSw1MTcuODUsNzIyLjgxNjUsNTEwLjIxOTEsNzE3LjkwNTIsNTEzLjAyNjEsNzE1LjA5ODIsNTA4LjExNDgsNzE2LjU5LDUxNy44NSIgc3R5bGU9InN0cm9rZTojMTgxODE4O3N0cm9rZS13aWR0aDoxOyIvPjwvZz48IS0tbGluayBHUEEgTW9uaXRvciB0byBHUEEgTG9ncyBEQi0tPjxnIGNsYXNzPSJsaW5rIiBkYXRhLWVudGl0eS0xPSJHUEEgTW9uaXRvciIgZGF0YS1lbnRpdHktMj0iR1BBIExvZ3MgREIiIGRhdGEtc291cmNlLWxpbmU9IjU1IiBkYXRhLXVpZD0ibG5rMzQiIGlkPSJsaW5rX0dQQSBNb25pdG9yX0dQQSBMb2dzIERCIj48cGF0aCBkPSJNODg5LjgsNDQ1LjIgQzg4Ny4wMSw0NjYuMyA4ODMuNzY2OSw0OTAuODExOCA4ODAuOTc2OSw1MTEuOTAxOCIgZmlsbD0ibm9uZSIgaWQ9IkdQQSBNb25pdG9yLXRvLUdQQSBMb2dzIERCIiBzdHlsZT0ic3Ryb2tlOiMxODE4MTg7c3Ryb2tlLXdpZHRoOjE7Ii8+PHBvbHlnb24gZmlsbD0iIzE4MTgxOCIgcG9pbnRzPSI4ODAuMTksNTE3Ljg1LDg4NS4zMzU4LDUwOS40NTIzLDg4MC44NDU3LDUxMi44OTMyLDg3Ny40MDQ5LDUwOC40MDMxLDg4MC4xOSw1MTcuODUiIHN0eWxlPSJzdHJva2U6IzE4MTgxODtzdHJva2Utd2lkdGg6MTsiLz48L2c+PCEtLWxpbmsgRG9jdW1lbnQgVmFsaWRhdG9yIHRvIERvY3VtZW50IFN0b3JhZ2UtLT48ZyBjbGFzcz0ibGluayIgZGF0YS1lbnRpdHktMT0iRG9jdW1lbnQgVmFsaWRhdG9yIiBkYXRhLWVudGl0eS0yPSJEb2N1bWVudCBTdG9yYWdlIiBkYXRhLXNvdXJjZS1saW5lPSI1NiIgZGF0YS11aWQ9ImxuazM1IiBpZD0ibGlua19Eb2N1bWVudCBWYWxpZGF0b3JfRG9jdW1lbnQgU3RvcmFnZSI+PHBhdGggZD0iTTEyMi4xOSw0NDUuMiBDMTQ1LjkxLDQ2Ni4zIDE3NS42Njc3LDQ5Mi43NzE0IDE5OS4zNjc3LDUxMy44NjE0IiBmaWxsPSJub25lIiBpZD0iRG9jdW1lbnQgVmFsaWRhdG9yLXRvLURvY3VtZW50IFN0b3JhZ2UiIHN0eWxlPSJzdHJva2U6IzE4MTgxODtzdHJva2Utd2lkdGg6MTsiLz48cG9seWdvbiBmaWxsPSIjMTgxODE4IiBwb2ludHM9IjIwMy44NSw1MTcuODUsMTk5Ljc4NTcsNTA4Ljg3ODksMjAwLjExNDgsNTE0LjUyNjEsMTk0LjQ2NzUsNTE0Ljg1NTIsMjAzLjg1LDUxNy44NSIgc3R5bGU9InN0cm9rZTojMTgxODE4O3N0cm9rZS13aWR0aDoxOyIvPjwvZz48IS0tbGluayBSdWxlcyBFbmdpbmUgdG8gU3R1ZGVudCBEYXRhYmFzZS0tPjxnIGNsYXNzPSJsaW5rIiBkYXRhLWVudGl0eS0xPSJSdWxlcyBFbmdpbmUiIGRhdGEtZW50aXR5LTI9IlN0dWRlbnQgRGF0YWJhc2UiIGRhdGEtc291cmNlLWxpbmU9IjU3IiBkYXRhLXVpZD0ibG5rMzYiIGlkPSJsaW5rX1J1bGVzIEVuZ2luZV9TdHVkZW50IERhdGFiYXNlIj48cGF0aCBkPSJNMjgzLjU5LDQ0NS4yIEMzMDguNTQsNDY2LjMgMzM5Ljk0OTMsNDkyLjg4NDggMzY0Ljg3OTMsNTEzLjk3NDgiIGZpbGw9Im5vbmUiIGlkPSJSdWxlcyBFbmdpbmUtdG8tU3R1ZGVudCBEYXRhYmFzZSIgc3R5bGU9InN0cm9rZTojMTgxODE4O3N0cm9rZS13aWR0aDoxOyIvPjxwb2x5Z29uIGZpbGw9IiMxODE4MTgiIHBvaW50cz0iMzY5LjQ2LDUxNy44NSwzNjUuMTcyMyw1MDguOTgzNCwzNjUuNjQyNyw1MTQuNjIwNywzNjAuMDA1NSw1MTUuMDkxMSwzNjkuNDYsNTE3Ljg1IiBzdHlsZT0ic3Ryb2tlOiMxODE4MTg7c3Ryb2tlLXdpZHRoOjE7Ii8+PC9nPjwhLS1saW5rIFF1b3RhIFRyYWNrZXIgdG8gU3R1ZGVudCBEYXRhYmFzZS0tPjxnIGNsYXNzPSJsaW5rIiBkYXRhLWVudGl0eS0xPSJRdW90YSBUcmFja2VyIiBkYXRhLWVudGl0eS0yPSJTdHVkZW50IERhdGFiYXNlIiBkYXRhLXNvdXJjZS1saW5lPSI1OCIgZGF0YS11aWQ9ImxuazM3IiBpZD0ibGlua19RdW90YSBUcmFja2VyX1N0dWRlbnQgRGF0YWJhc2UiPjxwYXRoIGQ9Ik0zOTgsNDQ1LjIgQzM5OCw0NjYuMyAzOTgsNDkwLjc2IDM5OCw1MTEuODUiIGZpbGw9Im5vbmUiIGlkPSJRdW90YSBUcmFja2VyLXRvLVN0dWRlbnQgRGF0YWJhc2UiIHN0eWxlPSJzdHJva2U6IzE4MTgxODtzdHJva2Utd2lkdGg6MTsiLz48cG9seWdvbiBmaWxsPSIjMTgxODE4IiBwb2ludHM9IjM5OCw1MTcuODUsNDAyLDUwOC44NSwzOTgsNTEyLjg1LDM5NCw1MDguODUsMzk4LDUxNy44NSIgc3R5bGU9InN0cm9rZTojMTgxODE4O3N0cm9rZS13aWR0aDoxOyIvPjwvZz48IS0tbGluayBTY2hvbGFyc2hpcCBNYW5hZ2VyIHRvIEF1ZGl0IExvZ3MtLT48ZyBjbGFzcz0ibGluayIgZGF0YS1lbnRpdHktMT0iU2Nob2xhcnNoaXAgTWFuYWdlciIgZGF0YS1lbnRpdHktMj0iQXVkaXQgTG9ncyIgZGF0YS1zb3VyY2UtbGluZT0iNTkiIGRhdGEtdWlkPSJsbmszOCIgaWQ9ImxpbmtfU2Nob2xhcnNoaXAgTWFuYWdlcl9BdWRpdCBMb2dzIj48cGF0aCBkPSJNNTYxLDQ0NS4yIEM1NTcuNTEsNDY2LjMgNTUzLjQ1OTYsNDkwLjg0MDUgNTQ5Ljk2OTYsNTExLjkzMDUiIGZpbGw9Im5vbmUiIGlkPSJTY2hvbGFyc2hpcCBNYW5hZ2VyLXRvLUF1ZGl0IExvZ3MiIHN0eWxlPSJzdHJva2U6IzE4MTgxODtzdHJva2Utd2lkdGg6MTsiLz48cG9seWdvbiBmaWxsPSIjMTgxODE4IiBwb2ludHM9IjU0OC45OSw1MTcuODUsNTU0LjQwNTcsNTA5LjYyMzgsNTQ5LjgwNjMsNTEyLjkxNzEsNTQ2LjUxMyw1MDguMzE3Nyw1NDguOTksNTE3Ljg1IiBzdHlsZT0ic3Ryb2tlOiMxODE4MTg7c3Ryb2tlLXdpZHRoOjE7Ii8+PC9nPjwhLS1TUkM9W1ZQRDFaekNtNDhObF9YTVp0R0VkbE81S2VMTWJENmN1eEE5MnFOOTA3QVFFY3JmckZQN2ppNWVYX1pqc0lqbDRUaVdueXl0dVpWc1VGS2hUZVM0SlMzZnJmOExzTV9VYzExWjE3VWZNMk1RbG8weHZpSk5Ld3dPYUhHUmt3LTRSNFRTWHk5aTFoQ1dxbWZwUGJWQkR1VHpxbmtEWlhHdnRRQ0xvMlZWTFhfTVlVZi1aamlCeWFkbzB3YU12QmlpU0wxbElKa1hjNjVNaTV0TjlfWjNNVUduUjBOU1I4d29OWGF3SVhZVHk0LVBrYUZiWndfZWNRRHdHU1FYLW1kWElnMVZESU1nZXExdnNYQVA5V0xmZ3I1cDBZbklsS05LaWVFV3c5TmJ3X2RTb254c1lMclpoTGNlSDlicHQzVk5GdkVKLXFsWWxhYTE1eG14cEhTdzVqTDF3TU9SS2ozbk1rRWdqNS0zOTlzZWJkcnVJRnYxMk9tLW9Xc1ZLN1pWOUNQTXF0Qi03Y21LLVJHZnU5WXFUZlJLbEZKYzRSeVBob05ILXhQTW1TblRLNFV6RnVHTFZLQ2E2YS1kWjVPRlZpZ3pfQ005ZWxQYW9OanJWdUx3c0tBckl4QWZZd21OdWlyOFloRXpscmNSUll4d0hSWVg3RFFfLU5KWE4tcVh3MXpZRkM3N29tbjk2bmNBOWNueXlhNVlDZlFRVXVRUlVwYUVubGg3SFZTRktMSXByLXAwclB4MHZEWjRRY21kOUc4elRudjhpM0NaNE5ZbUFxcTE0UlNkRUtOSHlveXJmQjktVVBFc1JrTFdjSV9fNTl5Y3dSZHFuNnlqNnY3b0xpTWpQYkJOcGlONThNOXBORU1uLXl2N1hfbTgwXS0tPjwvZz48L3N2Zz4=;" parent="1" vertex="1">
            <mxGeometry x="-964" y="-100" width="964" height="591" as="geometry" />
          </mxCell>
        </UserObject>
        <UserObject label="" plantUmlData="{&quot;data&quot;:&quot;@startuml student_portal_ui\nskinparam style strictuml\nskinparam defaultTextAlignment center\n\ntitle Student Portal – Scholarship &amp; Discount System\n\nrectangle \&quot;Student Dashboard\&quot; {\n  \n  rectangle \&quot;Menu\&quot; {\n    [Home]\n    [Apply for Scholarship]\n    [My Scholarships]\n    [Upload Documents]\n    [GPA Status]\n    [Notifications]\n    [Logout]\n  }\n\n  rectangle \&quot;Main Panel\&quot; {\n    rectangle \&quot;Scholarship Application Form\&quot; {\n      [Select Scholarship Type]\n      [Select Subcategory]\n      [Enter GPA / Credit Hours]\n      [Upload Required Documents]\n      [Sibling Student ID (optional)]\n      [Submit Application]\n    }\n\n    rectangle \&quot;Status Section\&quot; {\n      [Current Scholarship Status]\n      [Continuation Conditions]\n      [GPA Monitoring Alert]\n    }\n\n    rectangle \&quot;Messages &amp; Alerts\&quot; {\n      [Pre-evaluation Notification]\n      [Final Decision Email Status]\n      [Missing Documents Notice]\n    }\n  }\n}\n@enduml\n&quot;,&quot;format&quot;:&quot;svg&quot;}" id="8OKA-rKJ8xgby_Ax9gFC-49">
          <mxCell style="shape=image;noLabel=1;verticalAlign=top;aspect=fixed;imageAspect=0;image=data:image/svg+xml,PHN2ZyB4bWxucz0iaHR0cDovL3d3dy53My5vcmcvMjAwMC9zdmciIHhtbG5zOnhsaW5rPSJodHRwOi8vd3d3LnczLm9yZy8xOTk5L3hsaW5rIiBjb250ZW50U3R5bGVUeXBlPSJ0ZXh0L2NzcyIgZGF0YS1kaWFncmFtLXR5cGU9IkRFU0NSSVBUSU9OIiBoZWlnaHQ9IjYwMHB4IiBwcmVzZXJ2ZUFzcGVjdFJhdGlvPSJub25lIiBzdHlsZT0id2lkdGg6MTg3OHB4O2hlaWdodDo2MDBweDtiYWNrZ3JvdW5kOiNGRkZGRkY7IiB2ZXJzaW9uPSIxLjEiIHZpZXdCb3g9IjAgMCAxODc4IDYwMCIgd2lkdGg9IjE4NzhweCIgem9vbUFuZFBhbj0ibWFnbmlmeSI+PHRpdGxlPlN0dWRlbnQgUG9ydGFsIC0gU2Nob2xhcnNoaXAgJmFtcDsgRGlzY291bnQgU3lzdGVtPC90aXRsZT48ZGVmcy8+PGc+PHRleHQgZmlsbD0iIzAwMDAwMCIgZm9udC1mYW1pbHk9InNhbnMtc2VyaWYiIGZvbnQtc2l6ZT0iMTQiIGZvbnQtd2VpZ2h0PSJib2xkIiBsZW5ndGhBZGp1c3Q9InNwYWNpbmciIHRleHRMZW5ndGg9IjMyMiIgeD0iNzcxIiB5PSIyMy4yMzQ0Ij5TdHVkZW50IFBvcnRhbCAtIFNjaG9sYXJzaGlwICZhbXA7IERpc2NvdW50IFN5c3RlbTwvdGV4dD48IS0tY2x1c3RlciBTdHVkZW50IERhc2hib2FyZC0tPjxnIGNsYXNzPSJjbHVzdGVyIiBkYXRhLWVudGl0eT0iU3R1ZGVudCBEYXNoYm9hcmQiIGRhdGEtc291cmNlLWxpbmU9IjYiIGRhdGEtdWlkPSJlbnQwMDAyIiBpZD0iY2x1c3Rlcl9TdHVkZW50IERhc2hib2FyZCI+PHJlY3QgZmlsbD0ibm9uZSIgaGVpZ2h0PSI1NTIiIHN0eWxlPSJzdHJva2U6IzE4MTgxODtzdHJva2Utd2lkdGg6MTsiIHdpZHRoPSIxODY1IiB4PSI3IiB5PSI0Mi45ODQ0Ii8+PHRleHQgZmlsbD0iIzAwMDAwMCIgZm9udC1mYW1pbHk9InNhbnMtc2VyaWYiIGZvbnQtc2l6ZT0iMTQiIGZvbnQtd2VpZ2h0PSJib2xkIiBsZW5ndGhBZGp1c3Q9InNwYWNpbmciIHRleHRMZW5ndGg9IjExOSIgeD0iODgwIiB5PSI1OC4yMTg4Ij5TdHVkZW50IERhc2hib2FyZDwvdGV4dD48L2c+PCEtLWNsdXN0ZXIgTWVudS0tPjxnIGNsYXNzPSJjbHVzdGVyIiBkYXRhLWVudGl0eT0iTWVudSIgZGF0YS1zb3VyY2UtbGluZT0iOCIgZGF0YS11aWQ9ImVudDAwMDMiIGlkPSJjbHVzdGVyX01lbnUiPjxyZWN0IGZpbGw9Im5vbmUiIGhlaWdodD0iMzE3IiBzdHlsZT0ic3Ryb2tlOiMxODE4MTg7c3Ryb2tlLXdpZHRoOjE7IiB3aWR0aD0iNTAzIiB4PSIxMzQ1IiB5PSIxMjQuOTg0NCIvPjx0ZXh0IGZpbGw9IiMwMDAwMDAiIGZvbnQtZmFtaWx5PSJzYW5zLXNlcmlmIiBmb250LXNpemU9IjE0IiBmb250LXdlaWdodD0iYm9sZCIgbGVuZ3RoQWRqdXN0PSJzcGFjaW5nIiB0ZXh0TGVuZ3RoPSIyOCIgeD0iMTU4Mi41IiB5PSIxNDAuMjE4OCI+TWVudTwvdGV4dD48L2c+PCEtLWNsdXN0ZXIgTWFpbiBQYW5lbC0tPjxnIGNsYXNzPSJjbHVzdGVyIiBkYXRhLWVudGl0eT0iTWFpbiBQYW5lbCIgZGF0YS1zb3VyY2UtbGluZT0iMTgiIGRhdGEtdWlkPSJlbnQwMDExIiBpZD0iY2x1c3Rlcl9NYWluIFBhbmVsIj48cmVjdCBmaWxsPSJub25lIiBoZWlnaHQ9IjQ4NyIgc3R5bGU9InN0cm9rZTojMTgxODE4O3N0cm9rZS13aWR0aDoxOyIgd2lkdGg9IjEyOTAiIHg9IjMxIiB5PSI4My45ODQ0Ii8+PHRleHQgZmlsbD0iIzAwMDAwMCIgZm9udC1mYW1pbHk9InNhbnMtc2VyaWYiIGZvbnQtc2l6ZT0iMTQiIGZvbnQtd2VpZ2h0PSJib2xkIiBsZW5ndGhBZGp1c3Q9InNwYWNpbmciIHRleHRMZW5ndGg9IjcwIiB4PSI2NDEiIHk9Ijk5LjIxODgiPk1haW4gUGFuZWw8L3RleHQ+PC9nPjwhLS1jbHVzdGVyIFNjaG9sYXJzaGlwIEFwcGxpY2F0aW9uIEZvcm0tLT48ZyBjbGFzcz0iY2x1c3RlciIgZGF0YS1lbnRpdHk9IlNjaG9sYXJzaGlwIEFwcGxpY2F0aW9uIEZvcm0iIGRhdGEtc291cmNlLWxpbmU9IjE5IiBkYXRhLXVpZD0iZW50MDAxMiIgaWQ9ImNsdXN0ZXJfU2Nob2xhcnNoaXAgQXBwbGljYXRpb24gRm9ybSI+PHJlY3QgZmlsbD0ibm9uZSIgaGVpZ2h0PSIxOTkiIHN0eWxlPSJzdHJva2U6IzE4MTgxODtzdHJva2Utd2lkdGg6MTsiIHdpZHRoPSI3MjciIHg9IjU3MCIgeT0iMTI0Ljk4NDQiLz48dGV4dCBmaWxsPSIjMDAwMDAwIiBmb250LWZhbWlseT0ic2Fucy1zZXJpZiIgZm9udC1zaXplPSIxNCIgZm9udC13ZWlnaHQ9ImJvbGQiIGxlbmd0aEFkanVzdD0ic3BhY2luZyIgdGV4dExlbmd0aD0iMTk2IiB4PSI4MzUuNSIgeT0iMTQwLjIxODgiPlNjaG9sYXJzaGlwIEFwcGxpY2F0aW9uIEZvcm08L3RleHQ+PC9nPjwhLS1jbHVzdGVyIFN0YXR1cyBTZWN0aW9uLS0+PGcgY2xhc3M9ImNsdXN0ZXIiIGRhdGEtZW50aXR5PSJTdGF0dXMgU2VjdGlvbiIgZGF0YS1zb3VyY2UtbGluZT0iMjgiIGRhdGEtdWlkPSJlbnQwMDE5IiBpZD0iY2x1c3Rlcl9TdGF0dXMgU2VjdGlvbiI+PHJlY3QgZmlsbD0ibm9uZSIgaGVpZ2h0PSIxOTkiIHN0eWxlPSJzdHJva2U6IzE4MTgxODtzdHJva2Utd2lkdGg6MTsiIHdpZHRoPSI0OTEiIHg9IjU1IiB5PSIxMjQuOTg0NCIvPjx0ZXh0IGZpbGw9IiMwMDAwMDAiIGZvbnQtZmFtaWx5PSJzYW5zLXNlcmlmIiBmb250LXNpemU9IjE0IiBmb250LXdlaWdodD0iYm9sZCIgbGVuZ3RoQWRqdXN0PSJzcGFjaW5nIiB0ZXh0TGVuZ3RoPSI5OCIgeD0iMjUxLjUiIHk9IjE0MC4yMTg4Ij5TdGF0dXMgU2VjdGlvbjwvdGV4dD48L2c+PCEtLWNsdXN0ZXIgTWVzc2FnZXMgJiBBbGVydHMtLT48ZyBjbGFzcz0iY2x1c3RlciIgZGF0YS1lbnRpdHk9Ik1lc3NhZ2VzICZhbXA7IEFsZXJ0cyIgZGF0YS1zb3VyY2UtbGluZT0iMzQiIGRhdGEtdWlkPSJlbnQwMDIzIiBpZD0iY2x1c3Rlcl9NZXNzYWdlcyAmYW1wOyBBbGVydHMiPjxyZWN0IGZpbGw9Im5vbmUiIGhlaWdodD0iMTk5IiBzdHlsZT0ic3Ryb2tlOiMxODE4MTg7c3Ryb2tlLXdpZHRoOjE7IiB3aWR0aD0iNTI2IiB4PSI1NjMiIHk9IjM0Ny45ODQ0Ii8+PHRleHQgZmlsbD0iIzAwMDAwMCIgZm9udC1mYW1pbHk9InNhbnMtc2VyaWYiIGZvbnQtc2l6ZT0iMTQiIGZvbnQtd2VpZ2h0PSJib2xkIiBsZW5ndGhBZGp1c3Q9InNwYWNpbmciIHRleHRMZW5ndGg9IjExOSIgeD0iNzY2LjUiIHk9IjM2My4yMTg4Ij5NZXNzYWdlcyAmYW1wOyBBbGVydHM8L3RleHQ+PC9nPjwhLS1lbnRpdHkgSG9tZS0tPjxnIGNsYXNzPSJlbnRpdHkiIGRhdGEtZW50aXR5PSJIb21lIiBkYXRhLXNvdXJjZS1saW5lPSI5IiBkYXRhLXVpZD0iZW50MDAwNCIgaWQ9ImVudGl0eV9Ib21lIj48cmVjdCBmaWxsPSIjRjFGMUYxIiBoZWlnaHQ9IjQ0Ljk4NDQiIHJ4PSIyLjUiIHJ5PSIyLjUiIHN0eWxlPSJzdHJva2U6IzE4MTgxODtzdHJva2Utd2lkdGg6MC41OyIgd2lkdGg9IjY4IiB4PSIxMzYxIiB5PSIxNTcuOTg0NCIvPjxyZWN0IGZpbGw9IiNGMUYxRjEiIGhlaWdodD0iMTAiIHN0eWxlPSJzdHJva2U6IzE4MTgxODtzdHJva2Utd2lkdGg6MC41OyIgd2lkdGg9IjE1IiB4PSIxNDA5IiB5PSIxNjIuOTg0NCIvPjxyZWN0IGZpbGw9IiNGMUYxRjEiIGhlaWdodD0iMiIgc3R5bGU9InN0cm9rZTojMTgxODE4O3N0cm9rZS13aWR0aDowLjU7IiB3aWR0aD0iNCIgeD0iMTQwNyIgeT0iMTY0Ljk4NDQiLz48cmVjdCBmaWxsPSIjRjFGMUYxIiBoZWlnaHQ9IjIiIHN0eWxlPSJzdHJva2U6IzE4MTgxODtzdHJva2Utd2lkdGg6MC41OyIgd2lkdGg9IjQiIHg9IjE0MDciIHk9IjE2OC45ODQ0Ii8+PHRleHQgZmlsbD0iIzAwMDAwMCIgZm9udC1mYW1pbHk9InNhbnMtc2VyaWYiIGZvbnQtc2l6ZT0iMTQiIGxlbmd0aEFkanVzdD0ic3BhY2luZyIgdGV4dExlbmd0aD0iMjgiIHg9IjEzNzYiIHk9IjE5MS4yMTg4Ij5Ib21lPC90ZXh0PjwvZz48IS0tZW50aXR5IEFwcGx5IGZvciBTY2hvbGFyc2hpcC0tPjxnIGNsYXNzPSJlbnRpdHkiIGRhdGEtZW50aXR5PSJBcHBseSBmb3IgU2Nob2xhcnNoaXAiIGRhdGEtc291cmNlLWxpbmU9IjEwIiBkYXRhLXVpZD0iZW50MDAwNSIgaWQ9ImVudGl0eV9BcHBseSBmb3IgU2Nob2xhcnNoaXAiPjxyZWN0IGZpbGw9IiNGMUYxRjEiIGhlaWdodD0iNDQuOTg0NCIgcng9IjIuNSIgcnk9IjIuNSIgc3R5bGU9InN0cm9rZTojMTgxODE4O3N0cm9rZS13aWR0aDowLjU7IiB3aWR0aD0iMTg3IiB4PSIxNDY0LjUiIHk9IjE1Ny45ODQ0Ii8+PHJlY3QgZmlsbD0iI0YxRjFGMSIgaGVpZ2h0PSIxMCIgc3R5bGU9InN0cm9rZTojMTgxODE4O3N0cm9rZS13aWR0aDowLjU7IiB3aWR0aD0iMTUiIHg9IjE2MzEuNSIgeT0iMTYyLjk4NDQiLz48cmVjdCBmaWxsPSIjRjFGMUYxIiBoZWlnaHQ9IjIiIHN0eWxlPSJzdHJva2U6IzE4MTgxODtzdHJva2Utd2lkdGg6MC41OyIgd2lkdGg9IjQiIHg9IjE2MjkuNSIgeT0iMTY0Ljk4NDQiLz48cmVjdCBmaWxsPSIjRjFGMUYxIiBoZWlnaHQ9IjIiIHN0eWxlPSJzdHJva2U6IzE4MTgxODtzdHJva2Utd2lkdGg6MC41OyIgd2lkdGg9IjQiIHg9IjE2MjkuNSIgeT0iMTY4Ljk4NDQiLz48dGV4dCBmaWxsPSIjMDAwMDAwIiBmb250LWZhbWlseT0ic2Fucy1zZXJpZiIgZm9udC1zaXplPSIxNCIgbGVuZ3RoQWRqdXN0PSJzcGFjaW5nIiB0ZXh0TGVuZ3RoPSIxNDciIHg9IjE0NzkuNSIgeT0iMTkxLjIxODgiPkFwcGx5IGZvciBTY2hvbGFyc2hpcDwvdGV4dD48L2c+PCEtLWVudGl0eSBNeSBTY2hvbGFyc2hpcHMtLT48ZyBjbGFzcz0iZW50aXR5IiBkYXRhLWVudGl0eT0iTXkgU2Nob2xhcnNoaXBzIiBkYXRhLXNvdXJjZS1saW5lPSIxMSIgZGF0YS11aWQ9ImVudDAwMDYiIGlkPSJlbnRpdHlfTXkgU2Nob2xhcnNoaXBzIj48cmVjdCBmaWxsPSIjRjFGMUYxIiBoZWlnaHQ9IjQ0Ljk4NDQiIHJ4PSIyLjUiIHJ5PSIyLjUiIHN0eWxlPSJzdHJva2U6IzE4MTgxODtzdHJva2Utd2lkdGg6MC41OyIgd2lkdGg9IjE0NSIgeD0iMTY4Ni41IiB5PSIxNTcuOTg0NCIvPjxyZWN0IGZpbGw9IiNGMUYxRjEiIGhlaWdodD0iMTAiIHN0eWxlPSJzdHJva2U6IzE4MTgxODtzdHJva2Utd2lkdGg6MC41OyIgd2lkdGg9IjE1IiB4PSIxODExLjUiIHk9IjE2Mi45ODQ0Ii8+PHJlY3QgZmlsbD0iI0YxRjFGMSIgaGVpZ2h0PSIyIiBzdHlsZT0ic3Ryb2tlOiMxODE4MTg7c3Ryb2tlLXdpZHRoOjAuNTsiIHdpZHRoPSI0IiB4PSIxODA5LjUiIHk9IjE2NC45ODQ0Ii8+PHJlY3QgZmlsbD0iI0YxRjFGMSIgaGVpZ2h0PSIyIiBzdHlsZT0ic3Ryb2tlOiMxODE4MTg7c3Ryb2tlLXdpZHRoOjAuNTsiIHdpZHRoPSI0IiB4PSIxODA5LjUiIHk9IjE2OC45ODQ0Ii8+PHRleHQgZmlsbD0iIzAwMDAwMCIgZm9udC1mYW1pbHk9InNhbnMtc2VyaWYiIGZvbnQtc2l6ZT0iMTQiIGxlbmd0aEFkanVzdD0ic3BhY2luZyIgdGV4dExlbmd0aD0iMTA1IiB4PSIxNzAxLjUiIHk9IjE5MS4yMTg4Ij5NeSBTY2hvbGFyc2hpcHM8L3RleHQ+PC9nPjwhLS1lbnRpdHkgVXBsb2FkIERvY3VtZW50cy0tPjxnIGNsYXNzPSJlbnRpdHkiIGRhdGEtZW50aXR5PSJVcGxvYWQgRG9jdW1lbnRzIiBkYXRhLXNvdXJjZS1saW5lPSIxMiIgZGF0YS11aWQ9ImVudDAwMDciIGlkPSJlbnRpdHlfVXBsb2FkIERvY3VtZW50cyI+PHJlY3QgZmlsbD0iI0YxRjFGMSIgaGVpZ2h0PSI0NC45ODQ0IiByeD0iMi41IiByeT0iMi41IiBzdHlsZT0ic3Ryb2tlOiMxODE4MTg7c3Ryb2tlLXdpZHRoOjAuNTsiIHdpZHRoPSIxNTIiIHg9IjEzNjEiIHk9IjI2Mi45ODQ0Ii8+PHJlY3QgZmlsbD0iI0YxRjFGMSIgaGVpZ2h0PSIxMCIgc3R5bGU9InN0cm9rZTojMTgxODE4O3N0cm9rZS13aWR0aDowLjU7IiB3aWR0aD0iMTUiIHg9IjE0OTMiIHk9IjI2Ny45ODQ0Ii8+PHJlY3QgZmlsbD0iI0YxRjFGMSIgaGVpZ2h0PSIyIiBzdHlsZT0ic3Ryb2tlOiMxODE4MTg7c3Ryb2tlLXdpZHRoOjAuNTsiIHdpZHRoPSI0IiB4PSIxNDkxIiB5PSIyNjkuOTg0NCIvPjxyZWN0IGZpbGw9IiNGMUYxRjEiIGhlaWdodD0iMiIgc3R5bGU9InN0cm9rZTojMTgxODE4O3N0cm9rZS13aWR0aDowLjU7IiB3aWR0aD0iNCIgeD0iMTQ5MSIgeT0iMjczLjk4NDQiLz48dGV4dCBmaWxsPSIjMDAwMDAwIiBmb250LWZhbWlseT0ic2Fucy1zZXJpZiIgZm9udC1zaXplPSIxNCIgbGVuZ3RoQWRqdXN0PSJzcGFjaW5nIiB0ZXh0TGVuZ3RoPSIxMTIiIHg9IjEzNzYiIHk9IjI5Ni4yMTg4Ij5VcGxvYWQgRG9jdW1lbnRzPC90ZXh0PjwvZz48IS0tZW50aXR5IEdQQSBTdGF0dXMtLT48ZyBjbGFzcz0iZW50aXR5IiBkYXRhLWVudGl0eT0iR1BBIFN0YXR1cyIgZGF0YS1zb3VyY2UtbGluZT0iMTMiIGRhdGEtdWlkPSJlbnQwMDA4IiBpZD0iZW50aXR5X0dQQSBTdGF0dXMiPjxyZWN0IGZpbGw9IiNGMUYxRjEiIGhlaWdodD0iNDQuOTg0NCIgcng9IjIuNSIgcnk9IjIuNSIgc3R5bGU9InN0cm9rZTojMTgxODE4O3N0cm9rZS13aWR0aDowLjU7IiB3aWR0aD0iMTEwIiB4PSIxNTQ4IiB5PSIyNjIuOTg0NCIvPjxyZWN0IGZpbGw9IiNGMUYxRjEiIGhlaWdodD0iMTAiIHN0eWxlPSJzdHJva2U6IzE4MTgxODtzdHJva2Utd2lkdGg6MC41OyIgd2lkdGg9IjE1IiB4PSIxNjM4IiB5PSIyNjcuOTg0NCIvPjxyZWN0IGZpbGw9IiNGMUYxRjEiIGhlaWdodD0iMiIgc3R5bGU9InN0cm9rZTojMTgxODE4O3N0cm9rZS13aWR0aDowLjU7IiB3aWR0aD0iNCIgeD0iMTYzNiIgeT0iMjY5Ljk4NDQiLz48cmVjdCBmaWxsPSIjRjFGMUYxIiBoZWlnaHQ9IjIiIHN0eWxlPSJzdHJva2U6IzE4MTgxODtzdHJva2Utd2lkdGg6MC41OyIgd2lkdGg9IjQiIHg9IjE2MzYiIHk9IjI3My45ODQ0Ii8+PHRleHQgZmlsbD0iIzAwMDAwMCIgZm9udC1mYW1pbHk9InNhbnMtc2VyaWYiIGZvbnQtc2l6ZT0iMTQiIGxlbmd0aEFkanVzdD0ic3BhY2luZyIgdGV4dExlbmd0aD0iNzAiIHg9IjE1NjMiIHk9IjI5Ni4yMTg4Ij5HUEEgU3RhdHVzPC90ZXh0PjwvZz48IS0tZW50aXR5IE5vdGlmaWNhdGlvbnMtLT48ZyBjbGFzcz0iZW50aXR5IiBkYXRhLWVudGl0eT0iTm90aWZpY2F0aW9ucyIgZGF0YS1zb3VyY2UtbGluZT0iMTQiIGRhdGEtdWlkPSJlbnQwMDA5IiBpZD0iZW50aXR5X05vdGlmaWNhdGlvbnMiPjxyZWN0IGZpbGw9IiNGMUYxRjEiIGhlaWdodD0iNDQuOTg0NCIgcng9IjIuNSIgcnk9IjIuNSIgc3R5bGU9InN0cm9rZTojMTgxODE4O3N0cm9rZS13aWR0aDowLjU7IiB3aWR0aD0iMTMxIiB4PSIxNjkzLjUiIHk9IjI2Mi45ODQ0Ii8+PHJlY3QgZmlsbD0iI0YxRjFGMSIgaGVpZ2h0PSIxMCIgc3R5bGU9InN0cm9rZTojMTgxODE4O3N0cm9rZS13aWR0aDowLjU7IiB3aWR0aD0iMTUiIHg9IjE4MDQuNSIgeT0iMjY3Ljk4NDQiLz48cmVjdCBmaWxsPSIjRjFGMUYxIiBoZWlnaHQ9IjIiIHN0eWxlPSJzdHJva2U6IzE4MTgxODtzdHJva2Utd2lkdGg6MC41OyIgd2lkdGg9IjQiIHg9IjE4MDIuNSIgeT0iMjY5Ljk4NDQiLz48cmVjdCBmaWxsPSIjRjFGMUYxIiBoZWlnaHQ9IjIiIHN0eWxlPSJzdHJva2U6IzE4MTgxODtzdHJva2Utd2lkdGg6MC41OyIgd2lkdGg9IjQiIHg9IjE4MDIuNSIgeT0iMjczLjk4NDQiLz48dGV4dCBmaWxsPSIjMDAwMDAwIiBmb250LWZhbWlseT0ic2Fucy1zZXJpZiIgZm9udC1zaXplPSIxNCIgbGVuZ3RoQWRqdXN0PSJzcGFjaW5nIiB0ZXh0TGVuZ3RoPSI5MSIgeD0iMTcwOC41IiB5PSIyOTYuMjE4OCI+Tm90aWZpY2F0aW9uczwvdGV4dD48L2c+PCEtLWVudGl0eSBMb2dvdXQtLT48ZyBjbGFzcz0iZW50aXR5IiBkYXRhLWVudGl0eT0iTG9nb3V0IiBkYXRhLXNvdXJjZS1saW5lPSIxNSIgZGF0YS11aWQ9ImVudDAwMTAiIGlkPSJlbnRpdHlfTG9nb3V0Ij48cmVjdCBmaWxsPSIjRjFGMUYxIiBoZWlnaHQ9IjQ0Ljk4NDQiIHJ4PSIyLjUiIHJ5PSIyLjUiIHN0eWxlPSJzdHJva2U6IzE4MTgxODtzdHJva2Utd2lkdGg6MC41OyIgd2lkdGg9IjgyIiB4PSIxMzk2IiB5PSIzODAuOTg0NCIvPjxyZWN0IGZpbGw9IiNGMUYxRjEiIGhlaWdodD0iMTAiIHN0eWxlPSJzdHJva2U6IzE4MTgxODtzdHJva2Utd2lkdGg6MC41OyIgd2lkdGg9IjE1IiB4PSIxNDU4IiB5PSIzODUuOTg0NCIvPjxyZWN0IGZpbGw9IiNGMUYxRjEiIGhlaWdodD0iMiIgc3R5bGU9InN0cm9rZTojMTgxODE4O3N0cm9rZS13aWR0aDowLjU7IiB3aWR0aD0iNCIgeD0iMTQ1NiIgeT0iMzg3Ljk4NDQiLz48cmVjdCBmaWxsPSIjRjFGMUYxIiBoZWlnaHQ9IjIiIHN0eWxlPSJzdHJva2U6IzE4MTgxODtzdHJva2Utd2lkdGg6MC41OyIgd2lkdGg9IjQiIHg9IjE0NTYiIHk9IjM5MS45ODQ0Ii8+PHRleHQgZmlsbD0iIzAwMDAwMCIgZm9udC1mYW1pbHk9InNhbnMtc2VyaWYiIGZvbnQtc2l6ZT0iMTQiIGxlbmd0aEFkanVzdD0ic3BhY2luZyIgdGV4dExlbmd0aD0iNDIiIHg9IjE0MTEiIHk9IjQxNC4yMTg4Ij5Mb2dvdXQ8L3RleHQ+PC9nPjwhLS1lbnRpdHkgU2VsZWN0IFNjaG9sYXJzaGlwIFR5cGUtLT48ZyBjbGFzcz0iZW50aXR5IiBkYXRhLWVudGl0eT0iU2VsZWN0IFNjaG9sYXJzaGlwIFR5cGUiIGRhdGEtc291cmNlLWxpbmU9IjIwIiBkYXRhLXVpZD0iZW50MDAxMyIgaWQ9ImVudGl0eV9TZWxlY3QgU2Nob2xhcnNoaXAgVHlwZSI+PHJlY3QgZmlsbD0iI0YxRjFGMSIgaGVpZ2h0PSI0NC45ODQ0IiByeD0iMi41IiByeT0iMi41IiBzdHlsZT0ic3Ryb2tlOiMxODE4MTg7c3Ryb2tlLXdpZHRoOjAuNTsiIHdpZHRoPSIyMDEiIHg9IjU4OS41IiB5PSIxNTcuOTg0NCIvPjxyZWN0IGZpbGw9IiNGMUYxRjEiIGhlaWdodD0iMTAiIHN0eWxlPSJzdHJva2U6IzE4MTgxODtzdHJva2Utd2lkdGg6MC41OyIgd2lkdGg9IjE1IiB4PSI3NzAuNSIgeT0iMTYyLjk4NDQiLz48cmVjdCBmaWxsPSIjRjFGMUYxIiBoZWlnaHQ9IjIiIHN0eWxlPSJzdHJva2U6IzE4MTgxODtzdHJva2Utd2lkdGg6MC41OyIgd2lkdGg9IjQiIHg9Ijc2OC41IiB5PSIxNjQuOTg0NCIvPjxyZWN0IGZpbGw9IiNGMUYxRjEiIGhlaWdodD0iMiIgc3R5bGU9InN0cm9rZTojMTgxODE4O3N0cm9rZS13aWR0aDowLjU7IiB3aWR0aD0iNCIgeD0iNzY4LjUiIHk9IjE2OC45ODQ0Ii8+PHRleHQgZmlsbD0iIzAwMDAwMCIgZm9udC1mYW1pbHk9InNhbnMtc2VyaWYiIGZvbnQtc2l6ZT0iMTQiIGxlbmd0aEFkanVzdD0ic3BhY2luZyIgdGV4dExlbmd0aD0iMTYxIiB4PSI2MDQuNSIgeT0iMTkxLjIxODgiPlNlbGVjdCBTY2hvbGFyc2hpcCBUeXBlPC90ZXh0PjwvZz48IS0tZW50aXR5IFNlbGVjdCBTdWJjYXRlZ29yeS0tPjxnIGNsYXNzPSJlbnRpdHkiIGRhdGEtZW50aXR5PSJTZWxlY3QgU3ViY2F0ZWdvcnkiIGRhdGEtc291cmNlLWxpbmU9IjIxIiBkYXRhLXVpZD0iZW50MDAxNCIgaWQ9ImVudGl0eV9TZWxlY3QgU3ViY2F0ZWdvcnkiPjxyZWN0IGZpbGw9IiNGMUYxRjEiIGhlaWdodD0iNDQuOTg0NCIgcng9IjIuNSIgcnk9IjIuNSIgc3R5bGU9InN0cm9rZTojMTgxODE4O3N0cm9rZS13aWR0aDowLjU7IiB3aWR0aD0iMTY2IiB4PSI4MjYiIHk9IjE1Ny45ODQ0Ii8+PHJlY3QgZmlsbD0iI0YxRjFGMSIgaGVpZ2h0PSIxMCIgc3R5bGU9InN0cm9rZTojMTgxODE4O3N0cm9rZS13aWR0aDowLjU7IiB3aWR0aD0iMTUiIHg9Ijk3MiIgeT0iMTYyLjk4NDQiLz48cmVjdCBmaWxsPSIjRjFGMUYxIiBoZWlnaHQ9IjIiIHN0eWxlPSJzdHJva2U6IzE4MTgxODtzdHJva2Utd2lkdGg6MC41OyIgd2lkdGg9IjQiIHg9Ijk3MCIgeT0iMTY0Ljk4NDQiLz48cmVjdCBmaWxsPSIjRjFGMUYxIiBoZWlnaHQ9IjIiIHN0eWxlPSJzdHJva2U6IzE4MTgxODtzdHJva2Utd2lkdGg6MC41OyIgd2lkdGg9IjQiIHg9Ijk3MCIgeT0iMTY4Ljk4NDQiLz48dGV4dCBmaWxsPSIjMDAwMDAwIiBmb250LWZhbWlseT0ic2Fucy1zZXJpZiIgZm9udC1zaXplPSIxNCIgbGVuZ3RoQWRqdXN0PSJzcGFjaW5nIiB0ZXh0TGVuZ3RoPSIxMjYiIHg9Ijg0MSIgeT0iMTkxLjIxODgiPlNlbGVjdCBTdWJjYXRlZ29yeTwvdGV4dD48L2c+PCEtLWVudGl0eSBFbnRlciBHUEEgLyBDcmVkaXQgSG91cnMtLT48ZyBjbGFzcz0iZW50aXR5IiBkYXRhLWVudGl0eT0iRW50ZXIgR1BBIC8gQ3JlZGl0IEhvdXJzIiBkYXRhLXNvdXJjZS1saW5lPSIyMiIgZGF0YS11aWQ9ImVudDAwMTUiIGlkPSJlbnRpdHlfRW50ZXIgR1BBIC8gQ3JlZGl0IEhvdXJzIj48cmVjdCBmaWxsPSIjRjFGMUYxIiBoZWlnaHQ9IjQ0Ljk4NDQiIHJ4PSIyLjUiIHJ5PSIyLjUiIHN0eWxlPSJzdHJva2U6IzE4MTgxODtzdHJva2Utd2lkdGg6MC41OyIgd2lkdGg9IjIwOCIgeD0iMTAyNyIgeT0iMTU3Ljk4NDQiLz48cmVjdCBmaWxsPSIjRjFGMUYxIiBoZWlnaHQ9IjEwIiBzdHlsZT0ic3Ryb2tlOiMxODE4MTg7c3Ryb2tlLXdpZHRoOjAuNTsiIHdpZHRoPSIxNSIgeD0iMTIxNSIgeT0iMTYyLjk4NDQiLz48cmVjdCBmaWxsPSIjRjFGMUYxIiBoZWlnaHQ9IjIiIHN0eWxlPSJzdHJva2U6IzE4MTgxODtzdHJva2Utd2lkdGg6MC41OyIgd2lkdGg9IjQiIHg9IjEyMTMiIHk9IjE2NC45ODQ0Ii8+PHJlY3QgZmlsbD0iI0YxRjFGMSIgaGVpZ2h0PSIyIiBzdHlsZT0ic3Ryb2tlOiMxODE4MTg7c3Ryb2tlLXdpZHRoOjAuNTsiIHdpZHRoPSI0IiB4PSIxMjEzIiB5PSIxNjguOTg0NCIvPjx0ZXh0IGZpbGw9IiMwMDAwMDAiIGZvbnQtZmFtaWx5PSJzYW5zLXNlcmlmIiBmb250LXNpemU9IjE0IiBsZW5ndGhBZGp1c3Q9InNwYWNpbmciIHRleHRMZW5ndGg9IjE2OCIgeD0iMTA0MiIgeT0iMTkxLjIxODgiPkVudGVyIEdQQSAvIENyZWRpdCBIb3VyczwvdGV4dD48L2c+PCEtLWVudGl0eSBVcGxvYWQgUmVxdWlyZWQgRG9jdW1lbnRzLS0+PGcgY2xhc3M9ImVudGl0eSIgZGF0YS1lbnRpdHk9IlVwbG9hZCBSZXF1aXJlZCBEb2N1bWVudHMiIGRhdGEtc291cmNlLWxpbmU9IjIzIiBkYXRhLXVpZD0iZW50MDAxNiIgaWQ9ImVudGl0eV9VcGxvYWQgUmVxdWlyZWQgRG9jdW1lbnRzIj48cmVjdCBmaWxsPSIjRjFGMUYxIiBoZWlnaHQ9IjQ0Ljk4NDQiIHJ4PSIyLjUiIHJ5PSIyLjUiIHN0eWxlPSJzdHJva2U6IzE4MTgxODtzdHJva2Utd2lkdGg6MC41OyIgd2lkdGg9IjIxNSIgeD0iNTg2LjUiIHk9IjI2Mi45ODQ0Ii8+PHJlY3QgZmlsbD0iI0YxRjFGMSIgaGVpZ2h0PSIxMCIgc3R5bGU9InN0cm9rZTojMTgxODE4O3N0cm9rZS13aWR0aDowLjU7IiB3aWR0aD0iMTUiIHg9Ijc4MS41IiB5PSIyNjcuOTg0NCIvPjxyZWN0IGZpbGw9IiNGMUYxRjEiIGhlaWdodD0iMiIgc3R5bGU9InN0cm9rZTojMTgxODE4O3N0cm9rZS13aWR0aDowLjU7IiB3aWR0aD0iNCIgeD0iNzc5LjUiIHk9IjI2OS45ODQ0Ii8+PHJlY3QgZmlsbD0iI0YxRjFGMSIgaGVpZ2h0PSIyIiBzdHlsZT0ic3Ryb2tlOiMxODE4MTg7c3Ryb2tlLXdpZHRoOjAuNTsiIHdpZHRoPSI0IiB4PSI3NzkuNSIgeT0iMjczLjk4NDQiLz48dGV4dCBmaWxsPSIjMDAwMDAwIiBmb250LWZhbWlseT0ic2Fucy1zZXJpZiIgZm9udC1zaXplPSIxNCIgbGVuZ3RoQWRqdXN0PSJzcGFjaW5nIiB0ZXh0TGVuZ3RoPSIxNzUiIHg9IjYwMS41IiB5PSIyOTYuMjE4OCI+VXBsb2FkIFJlcXVpcmVkIERvY3VtZW50czwvdGV4dD48L2c+PCEtLWVudGl0eSBTaWJsaW5nIFN0dWRlbnQgSUQgKG9wdGlvbmFsKS0tPjxnIGNsYXNzPSJlbnRpdHkiIGRhdGEtZW50aXR5PSJTaWJsaW5nIFN0dWRlbnQgSUQgKG9wdGlvbmFsKSIgZGF0YS1zb3VyY2UtbGluZT0iMjQiIGRhdGEtdWlkPSJlbnQwMDE3IiBpZD0iZW50aXR5X1NpYmxpbmcgU3R1ZGVudCBJRCAob3B0aW9uYWwpIj48cmVjdCBmaWxsPSIjRjFGMUYxIiBoZWlnaHQ9IjQ0Ljk4NDQiIHJ4PSIyLjUiIHJ5PSIyLjUiIHN0eWxlPSJzdHJva2U6IzE4MTgxODtzdHJva2Utd2lkdGg6MC41OyIgd2lkdGg9IjI0MyIgeD0iODM2LjUiIHk9IjI2Mi45ODQ0Ii8+PHJlY3QgZmlsbD0iI0YxRjFGMSIgaGVpZ2h0PSIxMCIgc3R5bGU9InN0cm9rZTojMTgxODE4O3N0cm9rZS13aWR0aDowLjU7IiB3aWR0aD0iMTUiIHg9IjEwNTkuNSIgeT0iMjY3Ljk4NDQiLz48cmVjdCBmaWxsPSIjRjFGMUYxIiBoZWlnaHQ9IjIiIHN0eWxlPSJzdHJva2U6IzE4MTgxODtzdHJva2Utd2lkdGg6MC41OyIgd2lkdGg9IjQiIHg9IjEwNTcuNSIgeT0iMjY5Ljk4NDQiLz48cmVjdCBmaWxsPSIjRjFGMUYxIiBoZWlnaHQ9IjIiIHN0eWxlPSJzdHJva2U6IzE4MTgxODtzdHJva2Utd2lkdGg6MC41OyIgd2lkdGg9IjQiIHg9IjEwNTcuNSIgeT0iMjczLjk4NDQiLz48dGV4dCBmaWxsPSIjMDAwMDAwIiBmb250LWZhbWlseT0ic2Fucy1zZXJpZiIgZm9udC1zaXplPSIxNCIgbGVuZ3RoQWRqdXN0PSJzcGFjaW5nIiB0ZXh0TGVuZ3RoPSIyMDMiIHg9Ijg1MS41IiB5PSIyOTYuMjE4OCI+U2libGluZyBTdHVkZW50IElEIChvcHRpb25hbCk8L3RleHQ+PC9nPjwhLS1lbnRpdHkgU3VibWl0IEFwcGxpY2F0aW9uLS0+PGcgY2xhc3M9ImVudGl0eSIgZGF0YS1lbnRpdHk9IlN1Ym1pdCBBcHBsaWNhdGlvbiIgZGF0YS1zb3VyY2UtbGluZT0iMjUiIGRhdGEtdWlkPSJlbnQwMDE4IiBpZD0iZW50aXR5X1N1Ym1pdCBBcHBsaWNhdGlvbiI+PHJlY3QgZmlsbD0iI0YxRjFGMSIgaGVpZ2h0PSI0NC45ODQ0IiByeD0iMi41IiByeT0iMi41IiBzdHlsZT0ic3Ryb2tlOiMxODE4MTg7c3Ryb2tlLXdpZHRoOjAuNTsiIHdpZHRoPSIxNjYiIHg9IjExMTUiIHk9IjI2Mi45ODQ0Ii8+PHJlY3QgZmlsbD0iI0YxRjFGMSIgaGVpZ2h0PSIxMCIgc3R5bGU9InN0cm9rZTojMTgxODE4O3N0cm9rZS13aWR0aDowLjU7IiB3aWR0aD0iMTUiIHg9IjEyNjEiIHk9IjI2Ny45ODQ0Ii8+PHJlY3QgZmlsbD0iI0YxRjFGMSIgaGVpZ2h0PSIyIiBzdHlsZT0ic3Ryb2tlOiMxODE4MTg7c3Ryb2tlLXdpZHRoOjAuNTsiIHdpZHRoPSI0IiB4PSIxMjU5IiB5PSIyNjkuOTg0NCIvPjxyZWN0IGZpbGw9IiNGMUYxRjEiIGhlaWdodD0iMiIgc3R5bGU9InN0cm9rZTojMTgxODE4O3N0cm9rZS13aWR0aDowLjU7IiB3aWR0aD0iNCIgeD0iMTI1OSIgeT0iMjczLjk4NDQiLz48dGV4dCBmaWxsPSIjMDAwMDAwIiBmb250LWZhbWlseT0ic2Fucy1zZXJpZiIgZm9udC1zaXplPSIxNCIgbGVuZ3RoQWRqdXN0PSJzcGFjaW5nIiB0ZXh0TGVuZ3RoPSIxMjYiIHg9IjExMzAiIHk9IjI5Ni4yMTg4Ij5TdWJtaXQgQXBwbGljYXRpb248L3RleHQ+PC9nPjwhLS1lbnRpdHkgQ3VycmVudCBTY2hvbGFyc2hpcCBTdGF0dXMtLT48ZyBjbGFzcz0iZW50aXR5IiBkYXRhLWVudGl0eT0iQ3VycmVudCBTY2hvbGFyc2hpcCBTdGF0dXMiIGRhdGEtc291cmNlLWxpbmU9IjI5IiBkYXRhLXVpZD0iZW50MDAyMCIgaWQ9ImVudGl0eV9DdXJyZW50IFNjaG9sYXJzaGlwIFN0YXR1cyI+PHJlY3QgZmlsbD0iI0YxRjFGMSIgaGVpZ2h0PSI0NC45ODQ0IiByeD0iMi41IiByeT0iMi41IiBzdHlsZT0ic3Ryb2tlOiMxODE4MTg7c3Ryb2tlLXdpZHRoOjAuNTsiIHdpZHRoPSIyMjIiIHg9IjcxIiB5PSIxNTcuOTg0NCIvPjxyZWN0IGZpbGw9IiNGMUYxRjEiIGhlaWdodD0iMTAiIHN0eWxlPSJzdHJva2U6IzE4MTgxODtzdHJva2Utd2lkdGg6MC41OyIgd2lkdGg9IjE1IiB4PSIyNzMiIHk9IjE2Mi45ODQ0Ii8+PHJlY3QgZmlsbD0iI0YxRjFGMSIgaGVpZ2h0PSIyIiBzdHlsZT0ic3Ryb2tlOiMxODE4MTg7c3Ryb2tlLXdpZHRoOjAuNTsiIHdpZHRoPSI0IiB4PSIyNzEiIHk9IjE2NC45ODQ0Ii8+PHJlY3QgZmlsbD0iI0YxRjFGMSIgaGVpZ2h0PSIyIiBzdHlsZT0ic3Ryb2tlOiMxODE4MTg7c3Ryb2tlLXdpZHRoOjAuNTsiIHdpZHRoPSI0IiB4PSIyNzEiIHk9IjE2OC45ODQ0Ii8+PHRleHQgZmlsbD0iIzAwMDAwMCIgZm9udC1mYW1pbHk9InNhbnMtc2VyaWYiIGZvbnQtc2l6ZT0iMTQiIGxlbmd0aEFkanVzdD0ic3BhY2luZyIgdGV4dExlbmd0aD0iMTgyIiB4PSI4NiIgeT0iMTkxLjIxODgiPkN1cnJlbnQgU2Nob2xhcnNoaXAgU3RhdHVzPC90ZXh0PjwvZz48IS0tZW50aXR5IENvbnRpbnVhdGlvbiBDb25kaXRpb25zLS0+PGcgY2xhc3M9ImVudGl0eSIgZGF0YS1lbnRpdHk9IkNvbnRpbnVhdGlvbiBDb25kaXRpb25zIiBkYXRhLXNvdXJjZS1saW5lPSIzMCIgZGF0YS11aWQ9ImVudDAwMjEiIGlkPSJlbnRpdHlfQ29udGludWF0aW9uIENvbmRpdGlvbnMiPjxyZWN0IGZpbGw9IiNGMUYxRjEiIGhlaWdodD0iNDQuOTg0NCIgcng9IjIuNSIgcnk9IjIuNSIgc3R5bGU9InN0cm9rZTojMTgxODE4O3N0cm9rZS13aWR0aDowLjU7IiB3aWR0aD0iMjAxIiB4PSIzMjguNSIgeT0iMTU3Ljk4NDQiLz48cmVjdCBmaWxsPSIjRjFGMUYxIiBoZWlnaHQ9IjEwIiBzdHlsZT0ic3Ryb2tlOiMxODE4MTg7c3Ryb2tlLXdpZHRoOjAuNTsiIHdpZHRoPSIxNSIgeD0iNTA5LjUiIHk9IjE2Mi45ODQ0Ii8+PHJlY3QgZmlsbD0iI0YxRjFGMSIgaGVpZ2h0PSIyIiBzdHlsZT0ic3Ryb2tlOiMxODE4MTg7c3Ryb2tlLXdpZHRoOjAuNTsiIHdpZHRoPSI0IiB4PSI1MDcuNSIgeT0iMTY0Ljk4NDQiLz48cmVjdCBmaWxsPSIjRjFGMUYxIiBoZWlnaHQ9IjIiIHN0eWxlPSJzdHJva2U6IzE4MTgxODtzdHJva2Utd2lkdGg6MC41OyIgd2lkdGg9IjQiIHg9IjUwNy41IiB5PSIxNjguOTg0NCIvPjx0ZXh0IGZpbGw9IiMwMDAwMDAiIGZvbnQtZmFtaWx5PSJzYW5zLXNlcmlmIiBmb250LXNpemU9IjE0IiBsZW5ndGhBZGp1c3Q9InNwYWNpbmciIHRleHRMZW5ndGg9IjE2MSIgeD0iMzQzLjUiIHk9IjE5MS4yMTg4Ij5Db250aW51YXRpb24gQ29uZGl0aW9uczwvdGV4dD48L2c+PCEtLWVudGl0eSBHUEEgTW9uaXRvcmluZyBBbGVydC0tPjxnIGNsYXNzPSJlbnRpdHkiIGRhdGEtZW50aXR5PSJHUEEgTW9uaXRvcmluZyBBbGVydCIgZGF0YS1zb3VyY2UtbGluZT0iMzEiIGRhdGEtdWlkPSJlbnQwMDIyIiBpZD0iZW50aXR5X0dQQSBNb25pdG9yaW5nIEFsZXJ0Ij48cmVjdCBmaWxsPSIjRjFGMUYxIiBoZWlnaHQ9IjQ0Ljk4NDQiIHJ4PSIyLjUiIHJ5PSIyLjUiIHN0eWxlPSJzdHJva2U6IzE4MTgxODtzdHJva2Utd2lkdGg6MC41OyIgd2lkdGg9IjE4MCIgeD0iOTIiIHk9IjI2Mi45ODQ0Ii8+PHJlY3QgZmlsbD0iI0YxRjFGMSIgaGVpZ2h0PSIxMCIgc3R5bGU9InN0cm9rZTojMTgxODE4O3N0cm9rZS13aWR0aDowLjU7IiB3aWR0aD0iMTUiIHg9IjI1MiIgeT0iMjY3Ljk4NDQiLz48cmVjdCBmaWxsPSIjRjFGMUYxIiBoZWlnaHQ9IjIiIHN0eWxlPSJzdHJva2U6IzE4MTgxODtzdHJva2Utd2lkdGg6MC41OyIgd2lkdGg9IjQiIHg9IjI1MCIgeT0iMjY5Ljk4NDQiLz48cmVjdCBmaWxsPSIjRjFGMUYxIiBoZWlnaHQ9IjIiIHN0eWxlPSJzdHJva2U6IzE4MTgxODtzdHJva2Utd2lkdGg6MC41OyIgd2lkdGg9IjQiIHg9IjI1MCIgeT0iMjczLjk4NDQiLz48dGV4dCBmaWxsPSIjMDAwMDAwIiBmb250LWZhbWlseT0ic2Fucy1zZXJpZiIgZm9udC1zaXplPSIxNCIgbGVuZ3RoQWRqdXN0PSJzcGFjaW5nIiB0ZXh0TGVuZ3RoPSIxNDAiIHg9IjEwNyIgeT0iMjk2LjIxODgiPkdQQSBNb25pdG9yaW5nIEFsZXJ0PC90ZXh0PjwvZz48IS0tZW50aXR5IFByZS1ldmFsdWF0aW9uIE5vdGlmaWNhdGlvbi0tPjxnIGNsYXNzPSJlbnRpdHkiIGRhdGEtZW50aXR5PSJQcmUtZXZhbHVhdGlvbiBOb3RpZmljYXRpb24iIGRhdGEtc291cmNlLWxpbmU9IjM1IiBkYXRhLXVpZD0iZW50MDAyNCIgaWQ9ImVudGl0eV9QcmUtZXZhbHVhdGlvbiBOb3RpZmljYXRpb24iPjxyZWN0IGZpbGw9IiNGMUYxRjEiIGhlaWdodD0iNDQuOTg0NCIgcng9IjIuNSIgcnk9IjIuNSIgc3R5bGU9InN0cm9rZTojMTgxODE4O3N0cm9rZS13aWR0aDowLjU7IiB3aWR0aD0iMjI5IiB4PSI1NzkuNSIgeT0iMzgwLjk4NDQiLz48cmVjdCBmaWxsPSIjRjFGMUYxIiBoZWlnaHQ9IjEwIiBzdHlsZT0ic3Ryb2tlOiMxODE4MTg7c3Ryb2tlLXdpZHRoOjAuNTsiIHdpZHRoPSIxNSIgeD0iNzg4LjUiIHk9IjM4NS45ODQ0Ii8+PHJlY3QgZmlsbD0iI0YxRjFGMSIgaGVpZ2h0PSIyIiBzdHlsZT0ic3Ryb2tlOiMxODE4MTg7c3Ryb2tlLXdpZHRoOjAuNTsiIHdpZHRoPSI0IiB4PSI3ODYuNSIgeT0iMzg3Ljk4NDQiLz48cmVjdCBmaWxsPSIjRjFGMUYxIiBoZWlnaHQ9IjIiIHN0eWxlPSJzdHJva2U6IzE4MTgxODtzdHJva2Utd2lkdGg6MC41OyIgd2lkdGg9IjQiIHg9Ijc4Ni41IiB5PSIzOTEuOTg0NCIvPjx0ZXh0IGZpbGw9IiMwMDAwMDAiIGZvbnQtZmFtaWx5PSJzYW5zLXNlcmlmIiBmb250LXNpemU9IjE0IiBsZW5ndGhBZGp1c3Q9InNwYWNpbmciIHRleHRMZW5ndGg9IjE4OSIgeD0iNTk0LjUiIHk9IjQxNC4yMTg4Ij5QcmUtZXZhbHVhdGlvbiBOb3RpZmljYXRpb248L3RleHQ+PC9nPjwhLS1lbnRpdHkgRmluYWwgRGVjaXNpb24gRW1haWwgU3RhdHVzLS0+PGcgY2xhc3M9ImVudGl0eSIgZGF0YS1lbnRpdHk9IkZpbmFsIERlY2lzaW9uIEVtYWlsIFN0YXR1cyIgZGF0YS1zb3VyY2UtbGluZT0iMzYiIGRhdGEtdWlkPSJlbnQwMDI1IiBpZD0iZW50aXR5X0ZpbmFsIERlY2lzaW9uIEVtYWlsIFN0YXR1cyI+PHJlY3QgZmlsbD0iI0YxRjFGMSIgaGVpZ2h0PSI0NC45ODQ0IiByeD0iMi41IiByeT0iMi41IiBzdHlsZT0ic3Ryb2tlOiMxODE4MTg7c3Ryb2tlLXdpZHRoOjAuNTsiIHdpZHRoPSIyMjkiIHg9Ijg0My41IiB5PSIzODAuOTg0NCIvPjxyZWN0IGZpbGw9IiNGMUYxRjEiIGhlaWdodD0iMTAiIHN0eWxlPSJzdHJva2U6IzE4MTgxODtzdHJva2Utd2lkdGg6MC41OyIgd2lkdGg9IjE1IiB4PSIxMDUyLjUiIHk9IjM4NS45ODQ0Ii8+PHJlY3QgZmlsbD0iI0YxRjFGMSIgaGVpZ2h0PSIyIiBzdHlsZT0ic3Ryb2tlOiMxODE4MTg7c3Ryb2tlLXdpZHRoOjAuNTsiIHdpZHRoPSI0IiB4PSIxMDUwLjUiIHk9IjM4Ny45ODQ0Ii8+PHJlY3QgZmlsbD0iI0YxRjFGMSIgaGVpZ2h0PSIyIiBzdHlsZT0ic3Ryb2tlOiMxODE4MTg7c3Ryb2tlLXdpZHRoOjAuNTsiIHdpZHRoPSI0IiB4PSIxMDUwLjUiIHk9IjM5MS45ODQ0Ii8+PHRleHQgZmlsbD0iIzAwMDAwMCIgZm9udC1mYW1pbHk9InNhbnMtc2VyaWYiIGZvbnQtc2l6ZT0iMTQiIGxlbmd0aEFkanVzdD0ic3BhY2luZyIgdGV4dExlbmd0aD0iMTg5IiB4PSI4NTguNSIgeT0iNDE0LjIxODgiPkZpbmFsIERlY2lzaW9uIEVtYWlsIFN0YXR1czwvdGV4dD48L2c+PCEtLWVudGl0eSBNaXNzaW5nIERvY3VtZW50cyBOb3RpY2UtLT48ZyBjbGFzcz0iZW50aXR5IiBkYXRhLWVudGl0eT0iTWlzc2luZyBEb2N1bWVudHMgTm90aWNlIiBkYXRhLXNvdXJjZS1saW5lPSIzNyIgZGF0YS11aWQ9ImVudDAwMjYiIGlkPSJlbnRpdHlfTWlzc2luZyBEb2N1bWVudHMgTm90aWNlIj48cmVjdCBmaWxsPSIjRjFGMUYxIiBoZWlnaHQ9IjQ0Ljk4NDQiIHJ4PSIyLjUiIHJ5PSIyLjUiIHN0eWxlPSJzdHJva2U6IzE4MTgxODtzdHJva2Utd2lkdGg6MC41OyIgd2lkdGg9IjIwOCIgeD0iNTkwIiB5PSI0ODUuOTg0NCIvPjxyZWN0IGZpbGw9IiNGMUYxRjEiIGhlaWdodD0iMTAiIHN0eWxlPSJzdHJva2U6IzE4MTgxODtzdHJva2Utd2lkdGg6MC41OyIgd2lkdGg9IjE1IiB4PSI3NzgiIHk9IjQ5MC45ODQ0Ii8+PHJlY3QgZmlsbD0iI0YxRjFGMSIgaGVpZ2h0PSIyIiBzdHlsZT0ic3Ryb2tlOiMxODE4MTg7c3Ryb2tlLXdpZHRoOjAuNTsiIHdpZHRoPSI0IiB4PSI3NzYiIHk9IjQ5Mi45ODQ0Ii8+PHJlY3QgZmlsbD0iI0YxRjFGMSIgaGVpZ2h0PSIyIiBzdHlsZT0ic3Ryb2tlOiMxODE4MTg7c3Ryb2tlLXdpZHRoOjAuNTsiIHdpZHRoPSI0IiB4PSI3NzYiIHk9IjQ5Ni45ODQ0Ii8+PHRleHQgZmlsbD0iIzAwMDAwMCIgZm9udC1mYW1pbHk9InNhbnMtc2VyaWYiIGZvbnQtc2l6ZT0iMTQiIGxlbmd0aEFkanVzdD0ic3BhY2luZyIgdGV4dExlbmd0aD0iMTY4IiB4PSI2MDUiIHk9IjUxOS4yMTg4Ij5NaXNzaW5nIERvY3VtZW50cyBOb3RpY2U8L3RleHQ+PC9nPjwhLS1TUkM9W1RMOURSemltM0J0eExuMHozRWtYczZ5OHVkdUNjOFRXeGF2NTN1aENFQ0hhcVBFZU9LUkhfcnVnaUxxckcwNVJpQ1g3eWhyN25wX2FIbkZDMDU0Y1h0ZTZpZjg2THlLcnEtNzE5MlVGLTV5c1pkZV9lMVVtVWMyZUFZN0hpYlBJYndDeDNjOFN0NDFoWi1uQ1k0U1F1R2xLNTJxZHBSVEo1MW9nQWcwTHV0a2psNWZBUW5FRlVwUVhrdUFOMmEyVjBqSVdKLVN1bURDMzNfWHlfam9DZXZsV21BNFNFRVVRZ0dwNkVWZnhUNm13Z0RjY2g2Qzl0LXlzQWk5OE1XOF9NVVgwcldZbk5zOF9rRVNhLVY5UU5WMHB2NjVkRkJnNVBRY215MjhKZGhsMjdPVFhXTWx0NWZ0TVY3M2tTSGZkZktLLXhSS1VVbXhKY2hoRGt1Mml1SGppMHRPYXlDMGZuMUttZ193NVZuRGZfYjkteGF2eEh4dlZEX2N6WGd5eVBmeDZOUi1acWR4R3ZlTUFTLWhhbnFWSDlwRVhyT1lZMmZkUjU0OFVLRWVpZFN5R3phOC1kTHRJWS1mdnR5QXloOE96Mk9UQ1VVQ21vNlN5NmVwSHoxWnJCcHBYT2E1YjVfMDZfbmF0Sm9mTmxpd3c4cEswUWhHS0MtUHNDRUdrLUpPS09vUW9rZGZnUE43WGJEX05EbTAwXS0tPjwvZz48L3N2Zz4=;" parent="1" vertex="1">
            <mxGeometry x="-1430" y="410" width="1878" height="600" as="geometry" />
          </mxCell>
        </UserObject>
      </root>
    </mxGraphModel>
  </diagram>
</mxfile>
